<?xml version="1.0" encoding="UTF-8" standalone="no"?>
<!DOCTYPE svg PUBLIC "-//W3C//DTD SVG 1.1//EN" "http://www.w3.org/Graphics/SVG/1.1/DTD/svg11.dtd">
<svg width="407px" height="366px" version="1.1" xmlns="http://www.w3.org/2000/svg" xmlns:xlink="http://www.w3.org/1999/xlink" xml:space="preserve" xmlns:serif="http://www.serif.com/" style="fill-rule:evenodd;clip-rule:evenodd;background:#FFFFFF;">
    <g>
        <g id="elem_DashboardViewModel">
            <path id="DashboardViewModel" d="M400.5,117.5C400.5,116.12 399.38,115 398,115L19,115C17.62,115 16.5,116.12 16.5,117.5L16.5,248.547C16.5,249.927 17.62,251.047 19,251.047L398,251.047C399.38,251.047 400.5,249.927 400.5,248.547L400.5,117.5Z" style="fill:rgb(241,241,241);stroke:rgb(24,24,24);stroke-width:0.5px;"/>
            <circle cx="135.75" cy="131" r="11" style="fill:rgb(173,209,178);stroke:rgb(24,24,24);stroke-width:1px;"/>
            <path d="M138.516,126.875C138.62,126.729 138.734,126.62 138.859,126.547C138.984,126.474 139.12,126.438 139.266,126.438C139.516,126.438 139.719,126.526 139.875,126.703C140.031,126.87 140.109,127.156 140.109,127.563L140.109,129.016C140.109,129.422 140.031,129.714 139.875,129.891C139.719,130.068 139.516,130.156 139.266,130.156C139.036,130.156 138.854,130.089 138.719,129.953C138.583,129.828 138.479,129.594 138.406,129.25C138.375,129.01 138.297,128.828 138.172,128.703C137.953,128.453 137.641,128.255 137.234,128.109C136.828,127.964 136.417,127.891 136,127.891C135.49,127.891 135.021,128 134.594,128.219C134.177,128.438 133.802,128.797 133.469,129.297C133.146,129.797 132.984,130.391 132.984,131.078L132.984,132.172C132.984,132.995 133.281,133.682 133.875,134.234C134.469,134.776 135.297,135.047 136.359,135.047C136.984,135.047 137.516,134.964 137.953,134.797C138.214,134.693 138.484,134.495 138.766,134.203C138.943,134.026 139.078,133.911 139.172,133.859C139.276,133.807 139.396,133.781 139.531,133.781C139.75,133.781 139.943,133.87 140.109,134.047C140.286,134.214 140.375,134.411 140.375,134.641C140.375,134.87 140.26,135.12 140.031,135.391C139.698,135.776 139.266,136.078 138.734,136.297C138.016,136.599 137.224,136.75 136.359,136.75C135.349,136.75 134.443,136.542 133.641,136.125C132.984,135.792 132.427,135.271 131.969,134.563C131.51,133.844 131.281,133.057 131.281,132.203L131.281,131.047C131.281,130.161 131.484,129.339 131.891,128.578C132.307,127.807 132.88,127.219 133.609,126.813C134.339,126.396 135.115,126.188 135.938,126.188C136.427,126.188 136.885,126.245 137.313,126.359C137.75,126.464 138.151,126.635 138.516,126.875Z" style="fill-rule:nonzero;"/>
            <g transform="matrix(1,0,0,1,156.25,136.728)">
                <text x="0px" y="0px" style="font-family:'ArialMT', 'Arial', sans-serif;font-size:14px;">DashboardV<tspan x="77.574px 80.685px " y="0px 0px ">ie</tspan>wModel</text>
            </g>
            <path d="M17.5,147L399.5,147" style="fill:none;fill-rule:nonzero;stroke:rgb(24,24,24);stroke-width:0.5px;"/>
            <circle cx="27.5" cy="161.305" r="3" style="fill:none;stroke:rgb(3,128,72);stroke-width:1px;"/>
            <g transform="matrix(1,0,0,1,36.5,165.533)">
                <text x="0px" y="0px" style="font-family:'ArialMT', 'Arial', sans-serif;font-size:14px;">T<tspan x="7px 14.786px " y="0px 0px ">op</tspan>icMessages : ObservableCollection&lt;string&gt;</text>
            </g>
            <circle cx="27.5" cy="178.914" r="3" style="fill:none;stroke:rgb(3,128,72);stroke-width:1px;"/>
            <g transform="matrix(1,0,0,1,36.5,183.143)">
                <text x="0px" y="0px" style="font-family:'ArialMT', 'Arial', sans-serif;font-size:14px;">WindowSensors : ObservableCollection&lt;WindowSensor&gt;</text>
            </g>
            <circle cx="27.5" cy="196.523" r="3" style="fill:none;stroke:rgb(3,128,72);stroke-width:1px;"/>
            <g transform="matrix(1,0,0,1,36.5,200.752)">
                <text x="0px" y="0px" style="font-family:'ArialMT', 'Arial', sans-serif;font-size:14px;">ThermoSensors : ObservableCollection&lt;WindowSensor&gt;</text>
            </g>
            <circle cx="27.5" cy="214.133" r="3" style="fill:none;stroke:rgb(3,128,72);stroke-width:1px;"/>
            <g transform="matrix(1,0,0,1,36.5,218.361)">
                <text x="0px" y="0px" style="font-family:'ArialMT', 'Arial', sans-serif;font-size:14px;">OutletSensors : ObservableCollection&lt;WindowSensor&gt;</text>
            </g>
            <path d="M17.5,225.438L399.5,225.438" style="fill:none;fill-rule:nonzero;stroke:rgb(24,24,24);stroke-width:0.5px;"/>
            <circle cx="27.5" cy="239.742" r="3" style="fill:rgb(132,190,132);stroke:rgb(3,128,72);stroke-width:1px;"/>
            <g transform="matrix(1,0,0,1,36.5,243.971)">
                <text x="0px" y="0px" style="font-family:'ArialMT', 'Arial', sans-serif;font-size:14px;">DashboardV<tspan x="77.574px 80.685px " y="0px 0px ">ie</tspan>wModel()</text>
            </g>
        </g>
        <g id="elem_Bindable">
            <path id="Bindable" d="M252,9.5C252,8.12 250.88,7 249.5,7L167.5,7C166.12,7 165,8.12 165,9.5L165,52.5C165,53.88 166.12,55 167.5,55L249.5,55C250.88,55 252,53.88 252,52.5L252,9.5Z" style="fill:rgb(241,241,241);stroke:rgb(24,24,24);stroke-width:0.5px;"/>
            <circle cx="180" cy="23" r="11" style="fill:rgb(173,209,178);stroke:rgb(24,24,24);stroke-width:1px;"/>
            <path d="M182.766,18.875C182.87,18.729 182.984,18.62 183.109,18.547C183.234,18.474 183.37,18.438 183.516,18.438C183.766,18.438 183.969,18.526 184.125,18.703C184.281,18.87 184.359,19.156 184.359,19.563L184.359,21.016C184.359,21.422 184.281,21.714 184.125,21.891C183.969,22.068 183.766,22.156 183.516,22.156C183.286,22.156 183.104,22.089 182.969,21.953C182.833,21.828 182.729,21.594 182.656,21.25C182.625,21.01 182.547,20.828 182.422,20.703C182.203,20.453 181.891,20.255 181.484,20.109C181.078,19.964 180.667,19.891 180.25,19.891C179.74,19.891 179.271,20 178.844,20.219C178.427,20.438 178.052,20.797 177.719,21.297C177.396,21.797 177.234,22.391 177.234,23.078L177.234,24.172C177.234,24.995 177.531,25.682 178.125,26.234C178.719,26.776 179.547,27.047 180.609,27.047C181.234,27.047 181.766,26.964 182.203,26.797C182.464,26.693 182.734,26.495 183.016,26.203C183.193,26.026 183.328,25.911 183.422,25.859C183.526,25.807 183.646,25.781 183.781,25.781C184,25.781 184.193,25.87 184.359,26.047C184.536,26.214 184.625,26.411 184.625,26.641C184.625,26.87 184.51,27.12 184.281,27.391C183.948,27.776 183.516,28.078 182.984,28.297C182.266,28.599 181.474,28.75 180.609,28.75C179.599,28.75 178.693,28.542 177.891,28.125C177.234,27.792 176.677,27.271 176.219,26.563C175.76,25.844 175.531,25.057 175.531,24.203L175.531,23.047C175.531,22.162 175.734,21.339 176.141,20.578C176.557,19.807 177.13,19.219 177.859,18.813C178.589,18.396 179.365,18.188 180.188,18.188C180.677,18.188 181.135,18.245 181.563,18.359C182,18.464 182.401,18.635 182.766,18.875Z" style="fill-rule:nonzero;"/>
            <g transform="matrix(1,0,0,1,194,28.7285)">
                <text x="0px" y="0px" style="font-family:'ArialMT', 'Arial', sans-serif;font-size:14px;">Bindable</text>
            </g>
            <path d="M166,39L251,39" style="fill:none;fill-rule:nonzero;stroke:rgb(24,24,24);stroke-width:0.5px;"/>
            <path d="M166,47L251,47" style="fill:none;fill-rule:nonzero;stroke:rgb(24,24,24);stroke-width:0.5px;"/>
        </g>
        <g id="elem_ClientHandler">
            <path id="ClientHandler" d="M124,313.5C124,312.12 122.88,311 121.5,311L9.5,311C8.12,311 7,312.12 7,313.5L7,356.5C7,357.88 8.12,359 9.5,359L121.5,359C122.88,359 124,357.88 124,356.5L124,313.5Z" style="fill:rgb(241,241,241);stroke:rgb(24,24,24);stroke-width:0.5px;"/>
            <circle cx="22" cy="327" r="11" style="fill:rgb(173,209,178);stroke:rgb(24,24,24);stroke-width:1px;"/>
            <path d="M24.766,322.875C24.87,322.729 24.984,322.62 25.109,322.547C25.234,322.474 25.37,322.438 25.516,322.438C25.766,322.438 25.969,322.526 26.125,322.703C26.281,322.87 26.359,323.156 26.359,323.563L26.359,325.016C26.359,325.422 26.281,325.714 26.125,325.891C25.969,326.068 25.766,326.156 25.516,326.156C25.286,326.156 25.104,326.089 24.969,325.953C24.833,325.828 24.729,325.594 24.656,325.25C24.625,325.01 24.547,324.828 24.422,324.703C24.203,324.453 23.891,324.255 23.484,324.109C23.078,323.964 22.667,323.891 22.25,323.891C21.74,323.891 21.271,324 20.844,324.219C20.427,324.438 20.052,324.797 19.719,325.297C19.396,325.797 19.234,326.391 19.234,327.078L19.234,328.172C19.234,328.995 19.531,329.682 20.125,330.234C20.719,330.776 21.547,331.047 22.609,331.047C23.234,331.047 23.766,330.964 24.203,330.797C24.464,330.693 24.734,330.495 25.016,330.203C25.193,330.026 25.328,329.911 25.422,329.859C25.526,329.807 25.646,329.781 25.781,329.781C26,329.781 26.193,329.87 26.359,330.047C26.536,330.214 26.625,330.411 26.625,330.641C26.625,330.87 26.51,331.12 26.281,331.391C25.948,331.776 25.516,332.078 24.984,332.297C24.266,332.599 23.474,332.75 22.609,332.75C21.599,332.75 20.693,332.542 19.891,332.125C19.234,331.792 18.677,331.271 18.219,330.563C17.76,329.844 17.531,329.057 17.531,328.203L17.531,327.047C17.531,326.162 17.734,325.339 18.141,324.578C18.557,323.807 19.13,323.219 19.859,322.813C20.589,322.396 21.365,322.188 22.188,322.188C22.677,322.188 23.135,322.245 23.563,322.359C24,322.464 24.401,322.635 24.766,322.875Z" style="fill-rule:nonzero;"/>
            <g transform="matrix(1,0,0,1,36,332.728)">
                <text x="0px" y="0px" style="font-family:'ArialMT', 'Arial', sans-serif;font-size:14px;">ClientHandler</text>
            </g>
            <path d="M8,343L123,343" style="fill:none;fill-rule:nonzero;stroke:rgb(24,24,24);stroke-width:0.5px;"/>
            <path d="M8,351L123,351" style="fill:none;fill-rule:nonzero;stroke:rgb(24,24,24);stroke-width:0.5px;"/>
        </g>
        <g id="elem_ICommand">
            <path id="ICommand" d="M258,313.5C258,312.12 256.88,311 255.5,311L161.5,311C160.12,311 159,312.12 159,313.5L159,356.5C159,357.88 160.12,359 161.5,359L255.5,359C256.88,359 258,357.88 258,356.5L258,313.5Z" style="fill:rgb(241,241,241);stroke:rgb(24,24,24);stroke-width:0.5px;"/>
            <circle cx="174" cy="327" r="11" style="fill:rgb(173,209,178);stroke:rgb(24,24,24);stroke-width:1px;"/>
            <path d="M176.766,322.875C176.87,322.729 176.984,322.62 177.109,322.547C177.234,322.474 177.37,322.438 177.516,322.438C177.766,322.438 177.969,322.526 178.125,322.703C178.281,322.87 178.359,323.156 178.359,323.563L178.359,325.016C178.359,325.422 178.281,325.714 178.125,325.891C177.969,326.068 177.766,326.156 177.516,326.156C177.286,326.156 177.104,326.089 176.969,325.953C176.833,325.828 176.729,325.594 176.656,325.25C176.625,325.01 176.547,324.828 176.422,324.703C176.203,324.453 175.891,324.255 175.484,324.109C175.078,323.964 174.667,323.891 174.25,323.891C173.74,323.891 173.271,324 172.844,324.219C172.427,324.438 172.052,324.797 171.719,325.297C171.396,325.797 171.234,326.391 171.234,327.078L171.234,328.172C171.234,328.995 171.531,329.682 172.125,330.234C172.719,330.776 173.547,331.047 174.609,331.047C175.234,331.047 175.766,330.964 176.203,330.797C176.464,330.693 176.734,330.495 177.016,330.203C177.193,330.026 177.328,329.911 177.422,329.859C177.526,329.807 177.646,329.781 177.781,329.781C178,329.781 178.193,329.87 178.359,330.047C178.536,330.214 178.625,330.411 178.625,330.641C178.625,330.87 178.51,331.12 178.281,331.391C177.948,331.776 177.516,332.078 176.984,332.297C176.266,332.599 175.474,332.75 174.609,332.75C173.599,332.75 172.693,332.542 171.891,332.125C171.234,331.792 170.677,331.271 170.219,330.563C169.76,329.844 169.531,329.057 169.531,328.203L169.531,327.047C169.531,326.162 169.734,325.339 170.141,324.578C170.557,323.807 171.13,323.219 171.859,322.813C172.589,322.396 173.365,322.188 174.188,322.188C174.677,322.188 175.135,322.245 175.563,322.359C176,322.464 176.401,322.635 176.766,322.875Z" style="fill-rule:nonzero;"/>
            <g transform="matrix(1,0,0,1,188,332.728)">
                <text x="0px" y="0px" style="font-family:'ArialMT', 'Arial', sans-serif;font-size:14px;">ICommand</text>
            </g>
            <path d="M160,343L257,343" style="fill:none;fill-rule:nonzero;stroke:rgb(24,24,24);stroke-width:0.5px;"/>
            <path d="M160,351L257,351" style="fill:none;fill-rule:nonzero;stroke:rgb(24,24,24);stroke-width:0.5px;"/>
        </g>
        <g id="link_Bindable_DashboardViewModel">
            <path id="Bindable-backto-DashboardViewModel" d="M208.5,75.38L208.5,114.74" style="fill:none;fill-rule:nonzero;stroke:rgb(24,24,24);stroke-width:1px;"/>
            <path d="M201.5,75.11L208.5,55.11L215.5,75.11L201.5,75.11Z" style="fill:none;fill-rule:nonzero;stroke:rgb(24,24,24);stroke-width:1px;"/>
        </g>
        <g id="link_DashboardViewModel_ClientHandler">
            <path id="DashboardViewModel-to-ClientHandler" d="M144.53,251.1C125.74,270.81 106.26,291.24 91.34,306.9" style="fill:none;fill-rule:nonzero;stroke:rgb(24,24,24);stroke-width:1px;"/>
            <path d="M87.65,310.77L96.762,307.031L91.106,307.157L90.98,301.501L87.65,310.77Z" style="fill:rgb(24,24,24);fill-rule:nonzero;stroke:rgb(24,24,24);stroke-width:1px;"/>
            <g transform="matrix(1,0,0,1,6.4603,300.051)">
                <text x="0px" y="0px" style="font-family:'ArialMT', 'Arial', sans-serif;font-size:13px;">ClientHandler</text>
            </g>
        </g>
        <g id="link_DashboardViewModel_ICommand">
            <path id="DashboardViewModel-to-ICommand" d="M182.38,251.1C181.75,270.31 183.43,290.21 187.43,305.69" style="fill:none;fill-rule:nonzero;stroke:rgb(24,24,24);stroke-width:1px;"/>
            <path d="M188.88,310.77L190.261,301.019L187.51,305.961L182.567,303.21L188.88,310.77Z" style="fill:rgb(24,24,24);fill-rule:nonzero;stroke:rgb(24,24,24);stroke-width:1px;"/>
            <g transform="matrix(1,0,0,1,239.748,271.861)">
                <text x="0px" y="0px" style="font-family:'ArialMT', 'Arial', sans-serif;font-size:13px;">AddSensorCommand</text>
            </g>
        </g>
        <g id="link_DashboardViewModel_ICommand1" serif:id="link_DashboardViewModel_ICommand">
            <path id="DashboardViewModel-to-ICommand-1" d="M208.5,251.1L208.5,305.69" style="fill:none;fill-rule:nonzero;stroke:rgb(24,24,24);stroke-width:1px;"/>
            <path d="M208.5,310.77L212.5,301.77L208.5,305.77L204.5,301.77L208.5,310.77Z" style="fill:rgb(24,24,24);fill-rule:nonzero;stroke:rgb(24,24,24);stroke-width:1px;"/>
            <g transform="matrix(1,0,0,1,125.612,290.399)">
                <text x="0px" y="0px" style="font-family:'ArialMT', 'Arial', sans-serif;font-size:13px;">T<tspan x="6.5px 13.73px " y="0px 0px ">og</tspan>gleCommand</text>
            </g>
        </g>
        <g id="link_DashboardViewModel_ICommand2" serif:id="link_DashboardViewModel_ICommand">
            <path id="DashboardViewModel-to-ICommand-2" d="M234.62,251.1C235.25,270.31 233.57,290.21 229.57,305.69" style="fill:none;fill-rule:nonzero;stroke:rgb(24,24,24);stroke-width:1px;"/>
            <path d="M228.12,310.77L234.433,303.21L229.49,305.961L226.739,301.019L228.12,310.77Z" style="fill:rgb(24,24,24);fill-rule:nonzero;stroke:rgb(24,24,24);stroke-width:1px;"/>
            <g transform="matrix(1,0,0,1,239.145,294.146)">
                <text x="0px" y="0px" style="font-family:'ArialMT', 'Arial', sans-serif;font-size:13px;">SetT<tspan x="26.013px 33.243px " y="0px 0px ">em</tspan>pCommand</text>
            </g>
        </g>
    </g>
</svg>
