<?xml version="1.0" encoding="UTF-8" standalone="no"?><svg xmlns="http://www.w3.org/2000/svg" xmlns:xlink="http://www.w3.org/1999/xlink" contentStyleType="text/css" height="366px" preserveAspectRatio="none" style="width:407px;height:366px;background:#FFFFFF;" version="1.1" viewBox="0 0 407 366" width="407px" zoomAndPan="magnify"><defs/><g><!--MD5=[ca91d73d6f18027c28c062c1299fd929]
class DashboardViewModel--><g id="elem_DashboardViewModel"><rect codeLine="1" fill="#F1F1F1" height="136.0469" id="DashboardViewModel" rx="2.5" ry="2.5" style="stroke:#181818;stroke-width:0.5;" width="384" x="16.5" y="115"/><ellipse cx="135.75" cy="131" fill="#ADD1B2" rx="11" ry="11" style="stroke:#181818;stroke-width:1.0;"/><path d="M138.5156,126.875 Q138.6719,126.6563 138.8594,126.5469 Q139.0469,126.4375 139.2656,126.4375 Q139.6406,126.4375 139.875,126.7031 Q140.1094,126.9531 140.1094,127.5625 L140.1094,129.0156 Q140.1094,129.625 139.875,129.8906 Q139.6406,130.1563 139.2656,130.1563 Q138.9219,130.1563 138.7188,129.9531 Q138.5156,129.7656 138.4063,129.25 Q138.3594,128.8906 138.1719,128.7031 Q137.8438,128.3281 137.2344,128.1094 Q136.625,127.8906 136,127.8906 Q135.2344,127.8906 134.5938,128.2188 Q133.9688,128.5469 133.4688,129.2969 Q132.9844,130.0469 132.9844,131.0781 L132.9844,132.1719 Q132.9844,133.4063 133.875,134.2344 Q134.7656,135.0469 136.3594,135.0469 Q137.2969,135.0469 137.9531,134.7969 Q138.3438,134.6406 138.7656,134.2031 Q139.0313,133.9375 139.1719,133.8594 Q139.3281,133.7813 139.5313,133.7813 Q139.8594,133.7813 140.1094,134.0469 Q140.375,134.2969 140.375,134.6406 Q140.375,134.9844 140.0313,135.3906 Q139.5313,135.9688 138.7344,136.2969 Q137.6563,136.75 136.3594,136.75 Q134.8438,136.75 133.6406,136.125 Q132.6563,135.625 131.9688,134.5625 Q131.2813,133.4844 131.2813,132.2031 L131.2813,131.0469 Q131.2813,129.7188 131.8906,128.5781 Q132.5156,127.4219 133.6094,126.8125 Q134.7031,126.1875 135.9375,126.1875 Q136.6719,126.1875 137.3125,126.3594 Q137.9688,126.5156 138.5156,126.875 Z " fill="#000000"/><text fill="#000000" font-family="sans-serif" font-size="14" lengthAdjust="spacing" textLength="137" x="156.25" y="136.7285">DashboardViewModel</text><line style="stroke:#181818;stroke-width:0.5;" x1="17.5" x2="399.5" y1="147" y2="147"/><ellipse cx="27.5" cy="161.3047" fill="none" rx="3" ry="3" style="stroke:#038048;stroke-width:1.0;"/><text fill="#000000" font-family="sans-serif" font-size="14" lengthAdjust="spacing" textLength="297" x="36.5" y="165.5332">TopicMessages : ObservableCollection&lt;string&gt;</text><ellipse cx="27.5" cy="178.9141" fill="none" rx="3" ry="3" style="stroke:#038048;stroke-width:1.0;"/><text fill="#000000" font-family="sans-serif" font-size="14" lengthAdjust="spacing" textLength="358" x="36.5" y="183.1426">WindowSensors : ObservableCollection&lt;WindowSensor&gt;</text><ellipse cx="27.5" cy="196.5234" fill="none" rx="3" ry="3" style="stroke:#038048;stroke-width:1.0;"/><text fill="#000000" font-family="sans-serif" font-size="14" lengthAdjust="spacing" textLength="358" x="36.5" y="200.752">ThermoSensors : ObservableCollection&lt;WindowSensor&gt;</text><ellipse cx="27.5" cy="214.1328" fill="none" rx="3" ry="3" style="stroke:#038048;stroke-width:1.0;"/><text fill="#000000" font-family="sans-serif" font-size="14" lengthAdjust="spacing" textLength="347" x="36.5" y="218.3613">OutletSensors : ObservableCollection&lt;WindowSensor&gt;</text><line style="stroke:#181818;stroke-width:0.5;" x1="17.5" x2="399.5" y1="225.4375" y2="225.4375"/><ellipse cx="27.5" cy="239.7422" fill="#84BE84" rx="3" ry="3" style="stroke:#038048;stroke-width:1.0;"/><text fill="#000000" font-family="sans-serif" font-size="14" lengthAdjust="spacing" textLength="147" x="36.5" y="243.9707">DashboardViewModel()</text></g><!--MD5=[65c4506c46c60cfa938cb2b4b00e1c7d]
class Bindable--><g id="elem_Bindable"><rect fill="#F1F1F1" height="48" id="Bindable" rx="2.5" ry="2.5" style="stroke:#181818;stroke-width:0.5;" width="87" x="165" y="7"/><ellipse cx="180" cy="23" fill="#ADD1B2" rx="11" ry="11" style="stroke:#181818;stroke-width:1.0;"/><path d="M182.7656,18.875 Q182.9219,18.6563 183.1094,18.5469 Q183.2969,18.4375 183.5156,18.4375 Q183.8906,18.4375 184.125,18.7031 Q184.3594,18.9531 184.3594,19.5625 L184.3594,21.0156 Q184.3594,21.625 184.125,21.8906 Q183.8906,22.1563 183.5156,22.1563 Q183.1719,22.1563 182.9688,21.9531 Q182.7656,21.7656 182.6563,21.25 Q182.6094,20.8906 182.4219,20.7031 Q182.0938,20.3281 181.4844,20.1094 Q180.875,19.8906 180.25,19.8906 Q179.4844,19.8906 178.8438,20.2188 Q178.2188,20.5469 177.7188,21.2969 Q177.2344,22.0469 177.2344,23.0781 L177.2344,24.1719 Q177.2344,25.4063 178.125,26.2344 Q179.0156,27.0469 180.6094,27.0469 Q181.5469,27.0469 182.2031,26.7969 Q182.5938,26.6406 183.0156,26.2031 Q183.2813,25.9375 183.4219,25.8594 Q183.5781,25.7813 183.7813,25.7813 Q184.1094,25.7813 184.3594,26.0469 Q184.625,26.2969 184.625,26.6406 Q184.625,26.9844 184.2813,27.3906 Q183.7813,27.9688 182.9844,28.2969 Q181.9063,28.75 180.6094,28.75 Q179.0938,28.75 177.8906,28.125 Q176.9063,27.625 176.2188,26.5625 Q175.5313,25.4844 175.5313,24.2031 L175.5313,23.0469 Q175.5313,21.7188 176.1406,20.5781 Q176.7656,19.4219 177.8594,18.8125 Q178.9531,18.1875 180.1875,18.1875 Q180.9219,18.1875 181.5625,18.3594 Q182.2188,18.5156 182.7656,18.875 Z " fill="#000000"/><text fill="#000000" font-family="sans-serif" font-size="14" lengthAdjust="spacing" textLength="55" x="194" y="28.7285">Bindable</text><line style="stroke:#181818;stroke-width:0.5;" x1="166" x2="251" y1="39" y2="39"/><line style="stroke:#181818;stroke-width:0.5;" x1="166" x2="251" y1="47" y2="47"/></g><!--MD5=[5011627591ee4f7a3d58490c0e7112ca]
class ClientHandler--><g id="elem_ClientHandler"><rect fill="#F1F1F1" height="48" id="ClientHandler" rx="2.5" ry="2.5" style="stroke:#181818;stroke-width:0.5;" width="117" x="7" y="311"/><ellipse cx="22" cy="327" fill="#ADD1B2" rx="11" ry="11" style="stroke:#181818;stroke-width:1.0;"/><path d="M24.7656,322.875 Q24.9219,322.6563 25.1094,322.5469 Q25.2969,322.4375 25.5156,322.4375 Q25.8906,322.4375 26.125,322.7031 Q26.3594,322.9531 26.3594,323.5625 L26.3594,325.0156 Q26.3594,325.625 26.125,325.8906 Q25.8906,326.1563 25.5156,326.1563 Q25.1719,326.1563 24.9688,325.9531 Q24.7656,325.7656 24.6563,325.25 Q24.6094,324.8906 24.4219,324.7031 Q24.0938,324.3281 23.4844,324.1094 Q22.875,323.8906 22.25,323.8906 Q21.4844,323.8906 20.8438,324.2188 Q20.2188,324.5469 19.7188,325.2969 Q19.2344,326.0469 19.2344,327.0781 L19.2344,328.1719 Q19.2344,329.4063 20.125,330.2344 Q21.0156,331.0469 22.6094,331.0469 Q23.5469,331.0469 24.2031,330.7969 Q24.5938,330.6406 25.0156,330.2031 Q25.2813,329.9375 25.4219,329.8594 Q25.5781,329.7813 25.7813,329.7813 Q26.1094,329.7813 26.3594,330.0469 Q26.625,330.2969 26.625,330.6406 Q26.625,330.9844 26.2813,331.3906 Q25.7813,331.9688 24.9844,332.2969 Q23.9063,332.75 22.6094,332.75 Q21.0938,332.75 19.8906,332.125 Q18.9063,331.625 18.2188,330.5625 Q17.5313,329.4844 17.5313,328.2031 L17.5313,327.0469 Q17.5313,325.7188 18.1406,324.5781 Q18.7656,323.4219 19.8594,322.8125 Q20.9531,322.1875 22.1875,322.1875 Q22.9219,322.1875 23.5625,322.3594 Q24.2188,322.5156 24.7656,322.875 Z " fill="#000000"/><text fill="#000000" font-family="sans-serif" font-size="14" lengthAdjust="spacing" textLength="85" x="36" y="332.7285">ClientHandler</text><line style="stroke:#181818;stroke-width:0.5;" x1="8" x2="123" y1="343" y2="343"/><line style="stroke:#181818;stroke-width:0.5;" x1="8" x2="123" y1="351" y2="351"/></g><!--MD5=[11008d568be52109e77f2977709dd853]
class ICommand--><g id="elem_ICommand"><rect fill="#F1F1F1" height="48" id="ICommand" rx="2.5" ry="2.5" style="stroke:#181818;stroke-width:0.5;" width="99" x="159" y="311"/><ellipse cx="174" cy="327" fill="#ADD1B2" rx="11" ry="11" style="stroke:#181818;stroke-width:1.0;"/><path d="M176.7656,322.875 Q176.9219,322.6563 177.1094,322.5469 Q177.2969,322.4375 177.5156,322.4375 Q177.8906,322.4375 178.125,322.7031 Q178.3594,322.9531 178.3594,323.5625 L178.3594,325.0156 Q178.3594,325.625 178.125,325.8906 Q177.8906,326.1563 177.5156,326.1563 Q177.1719,326.1563 176.9688,325.9531 Q176.7656,325.7656 176.6563,325.25 Q176.6094,324.8906 176.4219,324.7031 Q176.0938,324.3281 175.4844,324.1094 Q174.875,323.8906 174.25,323.8906 Q173.4844,323.8906 172.8438,324.2188 Q172.2188,324.5469 171.7188,325.2969 Q171.2344,326.0469 171.2344,327.0781 L171.2344,328.1719 Q171.2344,329.4063 172.125,330.2344 Q173.0156,331.0469 174.6094,331.0469 Q175.5469,331.0469 176.2031,330.7969 Q176.5938,330.6406 177.0156,330.2031 Q177.2813,329.9375 177.4219,329.8594 Q177.5781,329.7813 177.7813,329.7813 Q178.1094,329.7813 178.3594,330.0469 Q178.625,330.2969 178.625,330.6406 Q178.625,330.9844 178.2813,331.3906 Q177.7813,331.9688 176.9844,332.2969 Q175.9063,332.75 174.6094,332.75 Q173.0938,332.75 171.8906,332.125 Q170.9063,331.625 170.2188,330.5625 Q169.5313,329.4844 169.5313,328.2031 L169.5313,327.0469 Q169.5313,325.7188 170.1406,324.5781 Q170.7656,323.4219 171.8594,322.8125 Q172.9531,322.1875 174.1875,322.1875 Q174.9219,322.1875 175.5625,322.3594 Q176.2188,322.5156 176.7656,322.875 Z " fill="#000000"/><text fill="#000000" font-family="sans-serif" font-size="14" lengthAdjust="spacing" textLength="67" x="188" y="332.7285">ICommand</text><line style="stroke:#181818;stroke-width:0.5;" x1="160" x2="257" y1="343" y2="343"/><line style="stroke:#181818;stroke-width:0.5;" x1="160" x2="257" y1="351" y2="351"/></g><!--MD5=[68710819af3eef2b02e26b20fcfdd5a9]
reverse link Bindable to DashboardViewModel--><g id="link_Bindable_DashboardViewModel"><path codeLine="8" d="M208.5,75.38 C208.5,87.68 208.5,101.37 208.5,114.74 " fill="none" id="Bindable-backto-DashboardViewModel" style="stroke:#181818;stroke-width:1.0;"/><polygon fill="none" points="201.5,75.11,208.5,55.11,215.5,75.11,201.5,75.11" style="stroke:#181818;stroke-width:1.0;"/></g><!--MD5=[f64310a089cc2b12021644d022954e37]
link DashboardViewModel to ClientHandler--><g id="link_DashboardViewModel_ClientHandler"><path codeLine="9" d="M144.53,251.1 C125.74,270.81 106.26,291.24 91.34,306.9 " fill="none" id="DashboardViewModel-to-ClientHandler" style="stroke:#181818;stroke-width:1.0;"/><polygon fill="#181818" points="87.65,310.77,96.7616,307.0311,91.1061,307.1568,90.9804,301.5013,87.65,310.77" style="stroke:#181818;stroke-width:1.0;"/><text fill="#000000" font-family="sans-serif" font-size="13" lengthAdjust="spacing" textLength="77" x="6.4603" y="300.0512">ClientHandler</text></g><!--MD5=[928ca197a90b552b21a5768d39fcf45b]
link DashboardViewModel to ICommand--><g id="link_DashboardViewModel_ICommand"><path codeLine="10" d="M182.38,251.1 C181.75,270.31 183.43,290.21 187.43,305.69 " fill="none" id="DashboardViewModel-to-ICommand" style="stroke:#181818;stroke-width:1.0;"/><polygon fill="#181818" points="188.88,310.77,190.2613,301.0185,187.5102,305.9613,182.5673,303.2102,188.88,310.77" style="stroke:#181818;stroke-width:1.0;"/><text fill="#000000" font-family="sans-serif" font-size="13" lengthAdjust="spacing" textLength="123" x="199.6118" y="300.0512">AddSensorCommand</text></g><!--MD5=[928ca197a90b552b21a5768d39fcf45b]
link DashboardViewModel to ICommand--><g id="link_DashboardViewModel_ICommand"><path codeLine="11" d="M208.5,251.1 C208.5,270.31 208.5,290.21 208.5,305.69 " fill="none" id="DashboardViewModel-to-ICommand-1" style="stroke:#181818;stroke-width:1.0;"/><polygon fill="#181818" points="208.5,310.77,212.5,301.77,208.5,305.77,204.5,301.77,208.5,310.77" style="stroke:#181818;stroke-width:1.0;"/><text fill="#000000" font-family="sans-serif" font-size="13" lengthAdjust="spacing" textLength="97" x="131.3457" y="300.0935">ToggleCommand</text></g><!--MD5=[928ca197a90b552b21a5768d39fcf45b]
link DashboardViewModel to ICommand--><g id="link_DashboardViewModel_ICommand"><path codeLine="12" d="M234.62,251.1 C235.25,270.31 233.57,290.21 229.57,305.69 " fill="none" id="DashboardViewModel-to-ICommand-2" style="stroke:#181818;stroke-width:1.0;"/><polygon fill="#181818" points="228.12,310.77,234.4327,303.2102,229.4898,305.9613,226.7387,301.0185,228.12,310.77" style="stroke:#181818;stroke-width:1.0;"/><text fill="#000000" font-family="sans-serif" font-size="13" lengthAdjust="spacing" textLength="111" x="266.619" y="316.0373">SetTempCommand</text></g><!--MD5=[07b0159929d9d4dee84837ee1c9b2821]
@startuml
class DashboardViewModel {
    + DashboardViewModel()
    + TopicMessages : ObservableCollection<string>
    + WindowSensors : ObservableCollection<WindowSensor>
    + ThermoSensors : ObservableCollection<WindowSensor>
    + OutletSensors : ObservableCollection<WindowSensor>
}
Bindable <|- - DashboardViewModel
DashboardViewModel - -> "ClientHandler" ClientHandler
DashboardViewModel - -> "AddSensorCommand" ICommand
DashboardViewModel - -> "ToggleCommand" ICommand
DashboardViewModel - -> "SetTempCommand" ICommand
@enduml

PlantUML version 1.2022.7(Mon Aug 22 19:01:30 CEST 2022)
(GPL source distribution)
Java Runtime: Java(TM) SE Runtime Environment
JVM: Java HotSpot(TM) 64-Bit Server VM
Default Encoding: Cp1252
Language: de
Country: DE
--></g></svg>