<?xml version="1.0" encoding="UTF-8" standalone="no"?><svg xmlns="http://www.w3.org/2000/svg" xmlns:xlink="http://www.w3.org/1999/xlink" contentStyleType="text/css" height="198px" preserveAspectRatio="none" style="width:427px;height:198px;background:#FFFFFF;" version="1.1" viewBox="0 0 427 198" width="427px" zoomAndPan="magnify"><defs/><g><!--MD5=[e1b164a86a28d50fa3c6af01a48ad041]
class ChangeTempDialog--><g id="elem_ChangeTempDialog"><rect codeLine="1" fill="#F1F1F1" height="76.3125" id="ChangeTempDialog" rx="2.5" ry="2.5" style="stroke:#181818;stroke-width:0.5;" width="413" x="7" y="115"/><ellipse cx="146.25" cy="136.3516" fill="#ADD1B2" rx="11" ry="11" style="stroke:#181818;stroke-width:1.0;"/><path d="M149.0156,132.2266 Q149.1719,132.0078 149.3594,131.8984 Q149.5469,131.7891 149.7656,131.7891 Q150.1406,131.7891 150.375,132.0547 Q150.6094,132.3047 150.6094,132.9141 L150.6094,134.3672 Q150.6094,134.9766 150.375,135.2422 Q150.1406,135.5078 149.7656,135.5078 Q149.4219,135.5078 149.2188,135.3047 Q149.0156,135.1172 148.9063,134.6016 Q148.8594,134.2422 148.6719,134.0547 Q148.3438,133.6797 147.7344,133.4609 Q147.125,133.2422 146.5,133.2422 Q145.7344,133.2422 145.0938,133.5703 Q144.4688,133.8984 143.9688,134.6484 Q143.4844,135.3984 143.4844,136.4297 L143.4844,137.5234 Q143.4844,138.7578 144.375,139.5859 Q145.2656,140.3984 146.8594,140.3984 Q147.7969,140.3984 148.4531,140.1484 Q148.8438,139.9922 149.2656,139.5547 Q149.5313,139.2891 149.6719,139.2109 Q149.8281,139.1328 150.0313,139.1328 Q150.3594,139.1328 150.6094,139.3984 Q150.875,139.6484 150.875,139.9922 Q150.875,140.3359 150.5313,140.7422 Q150.0313,141.3203 149.2344,141.6484 Q148.1563,142.1016 146.8594,142.1016 Q145.3438,142.1016 144.1406,141.4766 Q143.1563,140.9766 142.4688,139.9141 Q141.7813,138.8359 141.7813,137.5547 L141.7813,136.3984 Q141.7813,135.0703 142.3906,133.9297 Q143.0156,132.7734 144.1094,132.1641 Q145.2031,131.5391 146.4375,131.5391 Q147.1719,131.5391 147.8125,131.7109 Q148.4688,131.8672 149.0156,132.2266 Z " fill="#000000"/><text fill="#000000" font-family="sans-serif" font-size="12" font-style="italic" lengthAdjust="spacing" textLength="48" x="205.75" y="132.457">«partial»</text><text fill="#000000" font-family="sans-serif" font-size="14" lengthAdjust="spacing" textLength="126" x="166.75" y="149.627">ChangeTempDialog</text><line style="stroke:#181818;stroke-width:0.5;" x1="8" x2="419" y1="157.7031" y2="157.7031"/><line style="stroke:#181818;stroke-width:0.5;" x1="8" x2="419" y1="165.7031" y2="165.7031"/><ellipse cx="18" cy="180.0078" fill="#84BE84" rx="3" ry="3" style="stroke:#038048;stroke-width:1.0;"/><text fill="#000000" font-family="sans-serif" font-size="14" lengthAdjust="spacing" textLength="387" x="27" y="184.2363">ChangeTempDialog(currentTemp:int, onSuccess:Action&lt;int&gt;)</text></g><!--MD5=[fa22f29c53ed6d2510bea2e0aa245b7f]
class Window--><g id="elem_Window"><rect fill="#F1F1F1" height="48" id="Window" rx="2.5" ry="2.5" style="stroke:#181818;stroke-width:0.5;" width="81" x="173" y="7"/><ellipse cx="188" cy="23" fill="#ADD1B2" rx="11" ry="11" style="stroke:#181818;stroke-width:1.0;"/><path d="M190.7656,18.875 Q190.9219,18.6563 191.1094,18.5469 Q191.2969,18.4375 191.5156,18.4375 Q191.8906,18.4375 192.125,18.7031 Q192.3594,18.9531 192.3594,19.5625 L192.3594,21.0156 Q192.3594,21.625 192.125,21.8906 Q191.8906,22.1563 191.5156,22.1563 Q191.1719,22.1563 190.9688,21.9531 Q190.7656,21.7656 190.6563,21.25 Q190.6094,20.8906 190.4219,20.7031 Q190.0938,20.3281 189.4844,20.1094 Q188.875,19.8906 188.25,19.8906 Q187.4844,19.8906 186.8438,20.2188 Q186.2188,20.5469 185.7188,21.2969 Q185.2344,22.0469 185.2344,23.0781 L185.2344,24.1719 Q185.2344,25.4063 186.125,26.2344 Q187.0156,27.0469 188.6094,27.0469 Q189.5469,27.0469 190.2031,26.7969 Q190.5938,26.6406 191.0156,26.2031 Q191.2813,25.9375 191.4219,25.8594 Q191.5781,25.7813 191.7813,25.7813 Q192.1094,25.7813 192.3594,26.0469 Q192.625,26.2969 192.625,26.6406 Q192.625,26.9844 192.2813,27.3906 Q191.7813,27.9688 190.9844,28.2969 Q189.9063,28.75 188.6094,28.75 Q187.0938,28.75 185.8906,28.125 Q184.9063,27.625 184.2188,26.5625 Q183.5313,25.4844 183.5313,24.2031 L183.5313,23.0469 Q183.5313,21.7188 184.1406,20.5781 Q184.7656,19.4219 185.8594,18.8125 Q186.9531,18.1875 188.1875,18.1875 Q188.9219,18.1875 189.5625,18.3594 Q190.2188,18.5156 190.7656,18.875 Z " fill="#000000"/><text fill="#000000" font-family="sans-serif" font-size="14" lengthAdjust="spacing" textLength="49" x="202" y="28.7285">Window</text><line style="stroke:#181818;stroke-width:0.5;" x1="174" x2="253" y1="39" y2="39"/><line style="stroke:#181818;stroke-width:0.5;" x1="174" x2="253" y1="47" y2="47"/></g><!--MD5=[197ed579d38d2a6814543d2126bd0489]
reverse link Window to ChangeTempDialog--><g id="link_Window_ChangeTempDialog"><path codeLine="4" d="M213.5,75.34 C213.5,88.26 213.5,102.29 213.5,114.77 " fill="none" id="Window-backto-ChangeTempDialog" style="stroke:#181818;stroke-width:1.0;"/><polygon fill="none" points="206.5,75.14,213.5,55.14,220.5,75.14,206.5,75.14" style="stroke:#181818;stroke-width:1.0;"/></g><!--MD5=[2e958ff21918c730623b86c2b70dc204]
@startuml
class ChangeTempDialog <<partial>> {
    + ChangeTempDialog(currentTemp:int, onSuccess:Action<int>)
}
Window <|- - ChangeTempDialog
@enduml

PlantUML version 1.2022.7(Mon Aug 22 19:01:30 CEST 2022)
(GPL source distribution)
Java Runtime: Java(TM) SE Runtime Environment
JVM: Java HotSpot(TM) 64-Bit Server VM
Default Encoding: Cp1252
Language: de
Country: DE
--></g></svg>