<?xml version="1.0" encoding="UTF-8" standalone="no"?><svg xmlns="http://www.w3.org/2000/svg" xmlns:xlink="http://www.w3.org/1999/xlink" contentStyleType="text/css" height="258px" preserveAspectRatio="none" style="width:703px;height:258px;background:#FFFFFF;" version="1.1" viewBox="0 0 703 258" width="703px" zoomAndPan="magnify"><defs/><g><!--MD5=[80b69b0282ec6a6e45f43fe8a81a3e30]
class OutletSensor--><g id="elem_OutletSensor"><rect codeLine="1" fill="#F1F1F1" height="136.0469" id="OutletSensor" rx="2.5" ry="2.5" style="stroke:#181818;stroke-width:0.5;" width="689" x="7" y="115"/><ellipse cx="305.75" cy="131" fill="#ADD1B2" rx="11" ry="11" style="stroke:#181818;stroke-width:1.0;"/><path d="M308.5156,126.875 Q308.6719,126.6563 308.8594,126.5469 Q309.0469,126.4375 309.2656,126.4375 Q309.6406,126.4375 309.875,126.7031 Q310.1094,126.9531 310.1094,127.5625 L310.1094,129.0156 Q310.1094,129.625 309.875,129.8906 Q309.6406,130.1563 309.2656,130.1563 Q308.9219,130.1563 308.7188,129.9531 Q308.5156,129.7656 308.4063,129.25 Q308.3594,128.8906 308.1719,128.7031 Q307.8438,128.3281 307.2344,128.1094 Q306.625,127.8906 306,127.8906 Q305.2344,127.8906 304.5938,128.2188 Q303.9688,128.5469 303.4688,129.2969 Q302.9844,130.0469 302.9844,131.0781 L302.9844,132.1719 Q302.9844,133.4063 303.875,134.2344 Q304.7656,135.0469 306.3594,135.0469 Q307.2969,135.0469 307.9531,134.7969 Q308.3438,134.6406 308.7656,134.2031 Q309.0313,133.9375 309.1719,133.8594 Q309.3281,133.7813 309.5313,133.7813 Q309.8594,133.7813 310.1094,134.0469 Q310.375,134.2969 310.375,134.6406 Q310.375,134.9844 310.0313,135.3906 Q309.5313,135.9688 308.7344,136.2969 Q307.6563,136.75 306.3594,136.75 Q304.8438,136.75 303.6406,136.125 Q302.6563,135.625 301.9688,134.5625 Q301.2813,133.4844 301.2813,132.2031 L301.2813,131.0469 Q301.2813,129.7188 301.8906,128.5781 Q302.5156,127.4219 303.6094,126.8125 Q304.7031,126.1875 305.9375,126.1875 Q306.6719,126.1875 307.3125,126.3594 Q307.9688,126.5156 308.5156,126.875 Z " fill="#000000"/><text fill="#000000" font-family="sans-serif" font-size="14" lengthAdjust="spacing" textLength="83" x="326.25" y="136.7285">OutletSensor</text><line style="stroke:#181818;stroke-width:0.5;" x1="8" x2="695" y1="147" y2="147"/><ellipse cx="18" cy="161.3047" fill="none" rx="3" ry="3" style="stroke:#038048;stroke-width:1.0;"/><text fill="#000000" font-family="sans-serif" font-size="14" lengthAdjust="spacing" textLength="147" x="27" y="165.5332">IsOn : bool «get» «set»</text><line style="stroke:#181818;stroke-width:0.5;" x1="8" x2="695" y1="172.6094" y2="172.6094"/><ellipse cx="18" cy="186.9141" fill="#84BE84" rx="3" ry="3" style="stroke:#038048;stroke-width:1.0;"/><text fill="#000000" font-family="sans-serif" font-size="14" lengthAdjust="spacing" textLength="299" x="27" y="191.1426">OutletSensor(id:Guid, room:string, name:string)</text><ellipse cx="18" cy="204.5234" fill="#84BE84" rx="3" ry="3" style="stroke:#038048;stroke-width:1.0;"/><text fill="#000000" font-family="sans-serif" font-size="14" lengthAdjust="spacing" textLength="206" x="27" y="208.752">«override» PublishStatus() : void</text><ellipse cx="18" cy="222.1328" fill="#84BE84" rx="3" ry="3" style="stroke:#038048;stroke-width:1.0;"/><text fill="#000000" font-family="sans-serif" font-size="14" lengthAdjust="spacing" textLength="663" x="27" y="226.3613">«override» HandleMessageReceived(sender:object, e:MqttApplicationMessageReceivedEventArgs) : void</text><ellipse cx="18" cy="239.7422" fill="#84BE84" rx="3" ry="3" style="stroke:#038048;stroke-width:1.0;"/><text fill="#000000" font-family="sans-serif" font-size="14" lengthAdjust="spacing" text-decoration="underline" textLength="407" x="27" y="243.9707">IsBetween(now:DateTime, start:TimeSpan, end:TimeSpan) : bool</text></g><!--MD5=[7ec303b9a1b07012d304d0b0710773c0]
class GenericSensor--><g id="elem_GenericSensor"><rect fill="#F1F1F1" height="48" id="GenericSensor" rx="2.5" ry="2.5" style="stroke:#181818;stroke-width:0.5;" width="127" x="288" y="7"/><ellipse cx="303" cy="23" fill="#ADD1B2" rx="11" ry="11" style="stroke:#181818;stroke-width:1.0;"/><path d="M305.7656,18.875 Q305.9219,18.6563 306.1094,18.5469 Q306.2969,18.4375 306.5156,18.4375 Q306.8906,18.4375 307.125,18.7031 Q307.3594,18.9531 307.3594,19.5625 L307.3594,21.0156 Q307.3594,21.625 307.125,21.8906 Q306.8906,22.1563 306.5156,22.1563 Q306.1719,22.1563 305.9688,21.9531 Q305.7656,21.7656 305.6563,21.25 Q305.6094,20.8906 305.4219,20.7031 Q305.0938,20.3281 304.4844,20.1094 Q303.875,19.8906 303.25,19.8906 Q302.4844,19.8906 301.8438,20.2188 Q301.2188,20.5469 300.7188,21.2969 Q300.2344,22.0469 300.2344,23.0781 L300.2344,24.1719 Q300.2344,25.4063 301.125,26.2344 Q302.0156,27.0469 303.6094,27.0469 Q304.5469,27.0469 305.2031,26.7969 Q305.5938,26.6406 306.0156,26.2031 Q306.2813,25.9375 306.4219,25.8594 Q306.5781,25.7813 306.7813,25.7813 Q307.1094,25.7813 307.3594,26.0469 Q307.625,26.2969 307.625,26.6406 Q307.625,26.9844 307.2813,27.3906 Q306.7813,27.9688 305.9844,28.2969 Q304.9063,28.75 303.6094,28.75 Q302.0938,28.75 300.8906,28.125 Q299.9063,27.625 299.2188,26.5625 Q298.5313,25.4844 298.5313,24.2031 L298.5313,23.0469 Q298.5313,21.7188 299.1406,20.5781 Q299.7656,19.4219 300.8594,18.8125 Q301.9531,18.1875 303.1875,18.1875 Q303.9219,18.1875 304.5625,18.3594 Q305.2188,18.5156 305.7656,18.875 Z " fill="#000000"/><text fill="#000000" font-family="sans-serif" font-size="14" lengthAdjust="spacing" textLength="95" x="317" y="28.7285">GenericSensor</text><line style="stroke:#181818;stroke-width:0.5;" x1="289" x2="414" y1="39" y2="39"/><line style="stroke:#181818;stroke-width:0.5;" x1="289" x2="414" y1="47" y2="47"/></g><!--MD5=[d216e9753463156cd11b321aa5c8dc33]
reverse link GenericSensor to OutletSensor--><g id="link_GenericSensor_OutletSensor"><path codeLine="8" d="M351.5,75.38 C351.5,87.68 351.5,101.37 351.5,114.74 " fill="none" id="GenericSensor-backto-OutletSensor" style="stroke:#181818;stroke-width:1.0;"/><polygon fill="none" points="344.5,75.11,351.5,55.11,358.5,75.11,344.5,75.11" style="stroke:#181818;stroke-width:1.0;"/></g><!--MD5=[0f0998de360e4c4bc46af64567c98f29]
@startuml
class OutletSensor {
    + IsOn : bool <<get>> <<set>>
    + OutletSensor(id:Guid, room:string, name:string)
    + <<override>> PublishStatus() : void
    + <<override>> HandleMessageReceived(sender:object, e:MqttApplicationMessageReceivedEventArgs) : void
    + {static} IsBetween(now:DateTime, start:TimeSpan, end:TimeSpan) : bool
}
GenericSensor <|- - OutletSensor
@enduml

PlantUML version 1.2022.7(Mon Aug 22 19:01:30 CEST 2022)
(GPL source distribution)
Java Runtime: Java(TM) SE Runtime Environment
JVM: Java HotSpot(TM) 64-Bit Server VM
Default Encoding: Cp1252
Language: de
Country: DE
--></g></svg>