<?xml version="1.0" encoding="UTF-8" standalone="no"?><svg xmlns="http://www.w3.org/2000/svg" xmlns:xlink="http://www.w3.org/1999/xlink" contentStyleType="text/css" height="275px" preserveAspectRatio="none" style="width:902px;height:275px;background:#FFFFFF;" version="1.1" viewBox="0 0 902 275" width="902px" zoomAndPan="magnify"><defs/><g><!--MD5=[4904e8db44b909e812c8173a6fb2b20a]
class DelegateCommand`1--><g id="elem_DelegateCommand`1"><rect codeLine="1" fill="#F1F1F1" height="153.6563" id="DelegateCommand`1" rx="2.5" ry="2.5" style="stroke:#181818;stroke-width:0.5;" width="444" x="7" y="115"/><ellipse cx="152.25" cy="131" fill="#ADD1B2" rx="11" ry="11" style="stroke:#181818;stroke-width:1.0;"/><path d="M155.0156,126.875 Q155.1719,126.6563 155.3594,126.5469 Q155.5469,126.4375 155.7656,126.4375 Q156.1406,126.4375 156.375,126.7031 Q156.6094,126.9531 156.6094,127.5625 L156.6094,129.0156 Q156.6094,129.625 156.375,129.8906 Q156.1406,130.1563 155.7656,130.1563 Q155.4219,130.1563 155.2188,129.9531 Q155.0156,129.7656 154.9063,129.25 Q154.8594,128.8906 154.6719,128.7031 Q154.3438,128.3281 153.7344,128.1094 Q153.125,127.8906 152.5,127.8906 Q151.7344,127.8906 151.0938,128.2188 Q150.4688,128.5469 149.9688,129.2969 Q149.4844,130.0469 149.4844,131.0781 L149.4844,132.1719 Q149.4844,133.4063 150.375,134.2344 Q151.2656,135.0469 152.8594,135.0469 Q153.7969,135.0469 154.4531,134.7969 Q154.8438,134.6406 155.2656,134.2031 Q155.5313,133.9375 155.6719,133.8594 Q155.8281,133.7813 156.0313,133.7813 Q156.3594,133.7813 156.6094,134.0469 Q156.875,134.2969 156.875,134.6406 Q156.875,134.9844 156.5313,135.3906 Q156.0313,135.9688 155.2344,136.2969 Q154.1563,136.75 152.8594,136.75 Q151.3438,136.75 150.1406,136.125 Q149.1563,135.625 148.4688,134.5625 Q147.7813,133.4844 147.7813,132.2031 L147.7813,131.0469 Q147.7813,129.7188 148.3906,128.5781 Q149.0156,127.4219 150.1094,126.8125 Q151.2031,126.1875 152.4375,126.1875 Q153.1719,126.1875 153.8125,126.3594 Q154.4688,126.5156 155.0156,126.875 Z " fill="#000000"/><text fill="#000000" font-family="sans-serif" font-size="14" lengthAdjust="spacing" textLength="134" x="172.75" y="136.7285">DelegateCommand`1</text><rect fill="#FFFFFF" height="17.0938" style="stroke:#181818;stroke-width:1.0;stroke-dasharray:2.0,2.0;" width="9" x="445" y="112"/><text fill="#000000" font-family="sans-serif" font-size="12" font-style="italic" lengthAdjust="spacing" textLength="7" x="446" y="125.457">T</text><line style="stroke:#181818;stroke-width:0.5;" x1="8" x2="450" y1="147" y2="147"/><ellipse cx="18" cy="161.3047" fill="none" rx="3" ry="3" style="stroke:#038048;stroke-width:1.0;"/><text fill="#000000" font-family="sans-serif" font-size="14" lengthAdjust="spacing" textLength="286" x="27" y="165.5332">«event» CanExecuteChanged : EventHandler</text><line style="stroke:#181818;stroke-width:0.5;" x1="8" x2="450" y1="172.6094" y2="172.6094"/><ellipse cx="18" cy="186.9141" fill="#84BE84" rx="3" ry="3" style="stroke:#038048;stroke-width:1.0;"/><text fill="#000000" font-family="sans-serif" font-size="14" lengthAdjust="spacing" textLength="248" x="27" y="191.1426">DelegateCommand(execute:Action&lt;T&gt;)</text><ellipse cx="18" cy="204.5234" fill="#84BE84" rx="3" ry="3" style="stroke:#038048;stroke-width:1.0;"/><text fill="#000000" font-family="sans-serif" font-size="14" lengthAdjust="spacing" textLength="418" x="27" y="208.752">DelegateCommand(execute:Action&lt;T&gt;, canExecute:Predicate&lt;T&gt;)</text><ellipse cx="18" cy="222.1328" fill="#84BE84" rx="3" ry="3" style="stroke:#038048;stroke-width:1.0;"/><text fill="#000000" font-family="sans-serif" font-size="14" lengthAdjust="spacing" textLength="232" x="27" y="226.3613">CanExecute(parameter:object) : bool</text><ellipse cx="18" cy="239.7422" fill="#84BE84" rx="3" ry="3" style="stroke:#038048;stroke-width:1.0;"/><text fill="#000000" font-family="sans-serif" font-size="14" lengthAdjust="spacing" textLength="205" x="27" y="243.9707">Execute(parameter:object) : void</text><ellipse cx="18" cy="257.3516" fill="#84BE84" rx="3" ry="3" style="stroke:#038048;stroke-width:1.0;"/><text fill="#000000" font-family="sans-serif" font-size="14" lengthAdjust="spacing" textLength="218" x="27" y="261.5801">RaiseCanExecuteChanged() : void</text></g><!--MD5=[74a50105c6889faa853edf06450ab181]
class DelegateCommand--><g id="elem_DelegateCommand"><rect codeLine="9" fill="#F1F1F1" height="153.6563" id="DelegateCommand" rx="2.5" ry="2.5" style="stroke:#181818;stroke-width:0.5;" width="409" x="486.5" y="115"/><ellipse cx="626.25" cy="131" fill="#ADD1B2" rx="11" ry="11" style="stroke:#181818;stroke-width:1.0;"/><path d="M629.0156,126.875 Q629.1719,126.6563 629.3594,126.5469 Q629.5469,126.4375 629.7656,126.4375 Q630.1406,126.4375 630.375,126.7031 Q630.6094,126.9531 630.6094,127.5625 L630.6094,129.0156 Q630.6094,129.625 630.375,129.8906 Q630.1406,130.1563 629.7656,130.1563 Q629.4219,130.1563 629.2188,129.9531 Q629.0156,129.7656 628.9063,129.25 Q628.8594,128.8906 628.6719,128.7031 Q628.3438,128.3281 627.7344,128.1094 Q627.125,127.8906 626.5,127.8906 Q625.7344,127.8906 625.0938,128.2188 Q624.4688,128.5469 623.9688,129.2969 Q623.4844,130.0469 623.4844,131.0781 L623.4844,132.1719 Q623.4844,133.4063 624.375,134.2344 Q625.2656,135.0469 626.8594,135.0469 Q627.7969,135.0469 628.4531,134.7969 Q628.8438,134.6406 629.2656,134.2031 Q629.5313,133.9375 629.6719,133.8594 Q629.8281,133.7813 630.0313,133.7813 Q630.3594,133.7813 630.6094,134.0469 Q630.875,134.2969 630.875,134.6406 Q630.875,134.9844 630.5313,135.3906 Q630.0313,135.9688 629.2344,136.2969 Q628.1563,136.75 626.8594,136.75 Q625.3438,136.75 624.1406,136.125 Q623.1563,135.625 622.4688,134.5625 Q621.7813,133.4844 621.7813,132.2031 L621.7813,131.0469 Q621.7813,129.7188 622.3906,128.5781 Q623.0156,127.4219 624.1094,126.8125 Q625.2031,126.1875 626.4375,126.1875 Q627.1719,126.1875 627.8125,126.3594 Q628.4688,126.5156 629.0156,126.875 Z " fill="#000000"/><text fill="#000000" font-family="sans-serif" font-size="14" lengthAdjust="spacing" textLength="121" x="646.75" y="136.7285">DelegateCommand</text><line style="stroke:#181818;stroke-width:0.5;" x1="487.5" x2="894.5" y1="147" y2="147"/><ellipse cx="497.5" cy="161.3047" fill="none" rx="3" ry="3" style="stroke:#038048;stroke-width:1.0;"/><text fill="#000000" font-family="sans-serif" font-size="14" lengthAdjust="spacing" textLength="286" x="506.5" y="165.5332">«event» CanExecuteChanged : EventHandler</text><line style="stroke:#181818;stroke-width:0.5;" x1="487.5" x2="894.5" y1="172.6094" y2="172.6094"/><ellipse cx="497.5" cy="186.9141" fill="#84BE84" rx="3" ry="3" style="stroke:#038048;stroke-width:1.0;"/><text fill="#000000" font-family="sans-serif" font-size="14" lengthAdjust="spacing" textLength="223" x="506.5" y="191.1426">DelegateCommand(execute:Action)</text><ellipse cx="497.5" cy="204.5234" fill="#84BE84" rx="3" ry="3" style="stroke:#038048;stroke-width:1.0;"/><text fill="#000000" font-family="sans-serif" font-size="14" lengthAdjust="spacing" textLength="383" x="506.5" y="208.752">DelegateCommand(execute:Action, canExecute:Func&lt;bool&gt;)</text><ellipse cx="497.5" cy="222.1328" fill="#84BE84" rx="3" ry="3" style="stroke:#038048;stroke-width:1.0;"/><text fill="#000000" font-family="sans-serif" font-size="14" lengthAdjust="spacing" textLength="232" x="506.5" y="226.3613">CanExecute(parameter:object) : bool</text><ellipse cx="497.5" cy="239.7422" fill="#84BE84" rx="3" ry="3" style="stroke:#038048;stroke-width:1.0;"/><text fill="#000000" font-family="sans-serif" font-size="14" lengthAdjust="spacing" textLength="205" x="506.5" y="243.9707">Execute(parameter:object) : void</text><ellipse cx="497.5" cy="257.3516" fill="#84BE84" rx="3" ry="3" style="stroke:#038048;stroke-width:1.0;"/><text fill="#000000" font-family="sans-serif" font-size="14" lengthAdjust="spacing" textLength="218" x="506.5" y="261.5801">RaiseCanExecuteChanged() : void</text></g><!--MD5=[11008d568be52109e77f2977709dd853]
class ICommand--><g id="elem_ICommand"><rect fill="#F1F1F1" height="48" id="ICommand" rx="2.5" ry="2.5" style="stroke:#181818;stroke-width:0.5;" width="99" x="410.5" y="7"/><ellipse cx="425.5" cy="23" fill="#ADD1B2" rx="11" ry="11" style="stroke:#181818;stroke-width:1.0;"/><path d="M428.2656,18.875 Q428.4219,18.6563 428.6094,18.5469 Q428.7969,18.4375 429.0156,18.4375 Q429.3906,18.4375 429.625,18.7031 Q429.8594,18.9531 429.8594,19.5625 L429.8594,21.0156 Q429.8594,21.625 429.625,21.8906 Q429.3906,22.1563 429.0156,22.1563 Q428.6719,22.1563 428.4688,21.9531 Q428.2656,21.7656 428.1563,21.25 Q428.1094,20.8906 427.9219,20.7031 Q427.5938,20.3281 426.9844,20.1094 Q426.375,19.8906 425.75,19.8906 Q424.9844,19.8906 424.3438,20.2188 Q423.7188,20.5469 423.2188,21.2969 Q422.7344,22.0469 422.7344,23.0781 L422.7344,24.1719 Q422.7344,25.4063 423.625,26.2344 Q424.5156,27.0469 426.1094,27.0469 Q427.0469,27.0469 427.7031,26.7969 Q428.0938,26.6406 428.5156,26.2031 Q428.7813,25.9375 428.9219,25.8594 Q429.0781,25.7813 429.2813,25.7813 Q429.6094,25.7813 429.8594,26.0469 Q430.125,26.2969 430.125,26.6406 Q430.125,26.9844 429.7813,27.3906 Q429.2813,27.9688 428.4844,28.2969 Q427.4063,28.75 426.1094,28.75 Q424.5938,28.75 423.3906,28.125 Q422.4063,27.625 421.7188,26.5625 Q421.0313,25.4844 421.0313,24.2031 L421.0313,23.0469 Q421.0313,21.7188 421.6406,20.5781 Q422.2656,19.4219 423.3594,18.8125 Q424.4531,18.1875 425.6875,18.1875 Q426.4219,18.1875 427.0625,18.3594 Q427.7188,18.5156 428.2656,18.875 Z " fill="#000000"/><text fill="#000000" font-family="sans-serif" font-size="14" lengthAdjust="spacing" textLength="67" x="439.5" y="28.7285">ICommand</text><line style="stroke:#181818;stroke-width:0.5;" x1="411.5" x2="508.5" y1="39" y2="39"/><line style="stroke:#181818;stroke-width:0.5;" x1="411.5" x2="508.5" y1="47" y2="47"/></g><!--MD5=[c31c09e19f11e92ec55a6e54cae9cfc3]
reverse link ICommand to DelegateCommand`1--><g id="link_ICommand_DelegateCommand`1"><path codeLine="17" d="M409.76,66.58 C389.06,80.83 364.21,97.94 339.64,114.84 " fill="none" id="ICommand-backto-DelegateCommand`1" style="stroke:#181818;stroke-width:1.0;"/><polygon fill="none" points="405.97,60.69,426.41,55.12,413.9,72.23,405.97,60.69" style="stroke:#181818;stroke-width:1.0;"/></g><!--MD5=[e6c339654f320bf2758331531d38d954]
reverse link ICommand to DelegateCommand--><g id="link_ICommand_DelegateCommand"><path codeLine="18" d="M510.24,66.58 C530.94,80.83 555.79,97.94 580.36,114.84 " fill="none" id="ICommand-backto-DelegateCommand" style="stroke:#181818;stroke-width:1.0;"/><polygon fill="none" points="506.1,72.23,493.59,55.12,514.03,60.69,506.1,72.23" style="stroke:#181818;stroke-width:1.0;"/></g><!--MD5=[8bf02d42ba9d0681033db62aff20bd62]
@startuml
class "DelegateCommand`1"<T> {
    +  <<event>> CanExecuteChanged : EventHandler 
    + DelegateCommand(execute:Action<T>)
    + DelegateCommand(execute:Action<T>, canExecute:Predicate<T>)
    + CanExecute(parameter:object) : bool
    + Execute(parameter:object) : void
    + RaiseCanExecuteChanged() : void
}
class DelegateCommand {
    +  <<event>> CanExecuteChanged : EventHandler 
    + DelegateCommand(execute:Action)
    + DelegateCommand(execute:Action, canExecute:Func<bool>)
    + CanExecute(parameter:object) : bool
    + Execute(parameter:object) : void
    + RaiseCanExecuteChanged() : void
}
ICommand <|- - "DelegateCommand`1"
ICommand <|- - DelegateCommand
@enduml

PlantUML version 1.2022.7(Mon Aug 22 19:01:30 CEST 2022)
(GPL source distribution)
Java Runtime: Java(TM) SE Runtime Environment
JVM: Java HotSpot(TM) 64-Bit Server VM
Default Encoding: Cp1252
Language: de
Country: DE
--></g></svg>