<?xml version="1.0" encoding="UTF-8" standalone="no"?><svg xmlns="http://www.w3.org/2000/svg" xmlns:xlink="http://www.w3.org/1999/xlink" contentStyleType="text/css" height="366px" preserveAspectRatio="none" style="width:594px;height:366px;background:#FFFFFF;" version="1.1" viewBox="0 0 594 366" width="594px" zoomAndPan="magnify"><defs/><g><!--MD5=[45ec448948917d8e3f55dd7a0bf1c897]
class AddSensorViewModel--><g id="elem_AddSensorViewModel"><rect codeLine="1" fill="#F1F1F1" height="136.0469" id="AddSensorViewModel" rx="2.5" ry="2.5" style="stroke:#181818;stroke-width:0.5;" width="357" x="228.7267" y="115"/><ellipse cx="334.4767" cy="131" fill="#ADD1B2" rx="11" ry="11" style="stroke:#181818;stroke-width:1.0;"/><path d="M337.2423,126.875 Q337.3986,126.6563 337.5861,126.5469 Q337.7736,126.4375 337.9923,126.4375 Q338.3673,126.4375 338.6017,126.7031 Q338.8361,126.9531 338.8361,127.5625 L338.8361,129.0156 Q338.8361,129.625 338.6017,129.8906 Q338.3673,130.1563 337.9923,130.1563 Q337.6486,130.1563 337.4454,129.9531 Q337.2423,129.7656 337.1329,129.25 Q337.0861,128.8906 336.8986,128.7031 Q336.5704,128.3281 335.9611,128.1094 Q335.3517,127.8906 334.7267,127.8906 Q333.9611,127.8906 333.3204,128.2188 Q332.6954,128.5469 332.1954,129.2969 Q331.7111,130.0469 331.7111,131.0781 L331.7111,132.1719 Q331.7111,133.4063 332.6017,134.2344 Q333.4923,135.0469 335.0861,135.0469 Q336.0236,135.0469 336.6798,134.7969 Q337.0704,134.6406 337.4923,134.2031 Q337.7579,133.9375 337.8986,133.8594 Q338.0548,133.7813 338.2579,133.7813 Q338.5861,133.7813 338.8361,134.0469 Q339.1017,134.2969 339.1017,134.6406 Q339.1017,134.9844 338.7579,135.3906 Q338.2579,135.9688 337.4611,136.2969 Q336.3829,136.75 335.0861,136.75 Q333.5704,136.75 332.3673,136.125 Q331.3829,135.625 330.6954,134.5625 Q330.0079,133.4844 330.0079,132.2031 L330.0079,131.0469 Q330.0079,129.7188 330.6173,128.5781 Q331.2423,127.4219 332.3361,126.8125 Q333.4298,126.1875 334.6642,126.1875 Q335.3986,126.1875 336.0392,126.3594 Q336.6954,126.5156 337.2423,126.875 Z " fill="#000000"/><text fill="#000000" font-family="sans-serif" font-size="14" lengthAdjust="spacing" textLength="137" x="354.9767" y="136.7285">AddSensorViewModel</text><line style="stroke:#181818;stroke-width:0.5;" x1="229.7267" x2="584.7267" y1="147" y2="147"/><ellipse cx="239.7267" cy="161.3047" fill="none" rx="3" ry="3" style="stroke:#038048;stroke-width:1.0;"/><text fill="#000000" font-family="sans-serif" font-size="14" lengthAdjust="spacing" text-decoration="underline" textLength="331" x="248.7267" y="165.5332">«event» SaveEvent : EventHandler&lt;GenericSensor&gt;</text><ellipse cx="239.7267" cy="178.9141" fill="none" rx="3" ry="3" style="stroke:#038048;stroke-width:1.0;"/><text fill="#000000" font-family="sans-serif" font-size="14" lengthAdjust="spacing" text-decoration="underline" textLength="232" x="248.7267" y="183.1426">«event» CancelEvent : EventHandler</text><ellipse cx="239.7267" cy="196.5234" fill="none" rx="3" ry="3" style="stroke:#038048;stroke-width:1.0;"/><text fill="#000000" font-family="sans-serif" font-size="14" lengthAdjust="spacing" textLength="163" x="248.7267" y="200.752">Room : string «get» «set»</text><ellipse cx="239.7267" cy="214.1328" fill="none" rx="3" ry="3" style="stroke:#038048;stroke-width:1.0;"/><text fill="#000000" font-family="sans-serif" font-size="14" lengthAdjust="spacing" textLength="162" x="248.7267" y="218.3613">Name : string «get» «set»</text><line style="stroke:#181818;stroke-width:0.5;" x1="229.7267" x2="584.7267" y1="225.4375" y2="225.4375"/><ellipse cx="239.7267" cy="239.7422" fill="#84BE84" rx="3" ry="3" style="stroke:#038048;stroke-width:1.0;"/><text fill="#000000" font-family="sans-serif" font-size="14" lengthAdjust="spacing" textLength="147" x="248.7267" y="243.9707">AddSensorViewModel()</text></g><!--MD5=[6fcf91f8cf9ffbe80305b00d1b111ce3]
class IEnumerable`1--><g id="elem_IEnumerable`1"><rect codeLine="8" fill="#F1F1F1" height="48" id="IEnumerable`1" rx="2.5" ry="2.5" style="stroke:#181818;stroke-width:0.5;" width="135" x="113.7267" y="311"/><ellipse cx="128.7267" cy="327" fill="#ADD1B2" rx="11" ry="11" style="stroke:#181818;stroke-width:1.0;"/><path d="M131.4923,322.875 Q131.6486,322.6563 131.8361,322.5469 Q132.0236,322.4375 132.2423,322.4375 Q132.6173,322.4375 132.8517,322.7031 Q133.0861,322.9531 133.0861,323.5625 L133.0861,325.0156 Q133.0861,325.625 132.8517,325.8906 Q132.6173,326.1563 132.2423,326.1563 Q131.8986,326.1563 131.6954,325.9531 Q131.4923,325.7656 131.3829,325.25 Q131.3361,324.8906 131.1486,324.7031 Q130.8204,324.3281 130.2111,324.1094 Q129.6017,323.8906 128.9767,323.8906 Q128.2111,323.8906 127.5704,324.2188 Q126.9454,324.5469 126.4454,325.2969 Q125.9611,326.0469 125.9611,327.0781 L125.9611,328.1719 Q125.9611,329.4063 126.8517,330.2344 Q127.7423,331.0469 129.3361,331.0469 Q130.2736,331.0469 130.9298,330.7969 Q131.3204,330.6406 131.7423,330.2031 Q132.0079,329.9375 132.1486,329.8594 Q132.3048,329.7813 132.5079,329.7813 Q132.8361,329.7813 133.0861,330.0469 Q133.3517,330.2969 133.3517,330.6406 Q133.3517,330.9844 133.0079,331.3906 Q132.5079,331.9688 131.7111,332.2969 Q130.6329,332.75 129.3361,332.75 Q127.8204,332.75 126.6173,332.125 Q125.6329,331.625 124.9454,330.5625 Q124.2579,329.4844 124.2579,328.2031 L124.2579,327.0469 Q124.2579,325.7188 124.8673,324.5781 Q125.4923,323.4219 126.5861,322.8125 Q127.6798,322.1875 128.9142,322.1875 Q129.6486,322.1875 130.2892,322.3594 Q130.9454,322.5156 131.4923,322.875 Z " fill="#000000"/><text fill="#000000" font-family="sans-serif" font-size="14" lengthAdjust="spacing" textLength="92" x="142.7267" y="332.7285">IEnumerable`1</text><rect fill="#FFFFFF" height="17.0938" style="stroke:#181818;stroke-width:1.0;stroke-dasharray:2.0,2.0;" width="9" x="242.7267" y="308"/><text fill="#000000" font-family="sans-serif" font-size="12" font-style="italic" lengthAdjust="spacing" textLength="7" x="243.7267" y="321.457">T</text><line style="stroke:#181818;stroke-width:0.5;" x1="114.7267" x2="247.7267" y1="343" y2="343"/><line style="stroke:#181818;stroke-width:0.5;" x1="114.7267" x2="247.7267" y1="351" y2="351"/></g><!--MD5=[65c4506c46c60cfa938cb2b4b00e1c7d]
class Bindable--><g id="elem_Bindable"><rect fill="#F1F1F1" height="48" id="Bindable" rx="2.5" ry="2.5" style="stroke:#181818;stroke-width:0.5;" width="87" x="363.7267" y="7"/><ellipse cx="378.7267" cy="23" fill="#ADD1B2" rx="11" ry="11" style="stroke:#181818;stroke-width:1.0;"/><path d="M381.4923,18.875 Q381.6486,18.6563 381.8361,18.5469 Q382.0236,18.4375 382.2423,18.4375 Q382.6173,18.4375 382.8517,18.7031 Q383.0861,18.9531 383.0861,19.5625 L383.0861,21.0156 Q383.0861,21.625 382.8517,21.8906 Q382.6173,22.1563 382.2423,22.1563 Q381.8986,22.1563 381.6954,21.9531 Q381.4923,21.7656 381.3829,21.25 Q381.3361,20.8906 381.1486,20.7031 Q380.8204,20.3281 380.2111,20.1094 Q379.6017,19.8906 378.9767,19.8906 Q378.2111,19.8906 377.5704,20.2188 Q376.9454,20.5469 376.4454,21.2969 Q375.9611,22.0469 375.9611,23.0781 L375.9611,24.1719 Q375.9611,25.4063 376.8517,26.2344 Q377.7423,27.0469 379.3361,27.0469 Q380.2736,27.0469 380.9298,26.7969 Q381.3204,26.6406 381.7423,26.2031 Q382.0079,25.9375 382.1486,25.8594 Q382.3048,25.7813 382.5079,25.7813 Q382.8361,25.7813 383.0861,26.0469 Q383.3517,26.2969 383.3517,26.6406 Q383.3517,26.9844 383.0079,27.3906 Q382.5079,27.9688 381.7111,28.2969 Q380.6329,28.75 379.3361,28.75 Q377.8204,28.75 376.6173,28.125 Q375.6329,27.625 374.9454,26.5625 Q374.2579,25.4844 374.2579,24.2031 L374.2579,23.0469 Q374.2579,21.7188 374.8673,20.5781 Q375.4923,19.4219 376.5861,18.8125 Q377.6798,18.1875 378.9142,18.1875 Q379.6486,18.1875 380.2892,18.3594 Q380.9454,18.5156 381.4923,18.875 Z " fill="#000000"/><text fill="#000000" font-family="sans-serif" font-size="14" lengthAdjust="spacing" textLength="55" x="392.7267" y="28.7285">Bindable</text><line style="stroke:#181818;stroke-width:0.5;" x1="364.7267" x2="449.7267" y1="39" y2="39"/><line style="stroke:#181818;stroke-width:0.5;" x1="364.7267" x2="449.7267" y1="47" y2="47"/></g><!--MD5=[1e8263b845920e926a03f59b0e4298ea]
class SensorType--><g id="elem_SensorType"><rect fill="#F1F1F1" height="48" id="SensorType" rx="2.5" ry="2.5" style="stroke:#181818;stroke-width:0.5;" width="109" x="283.7267" y="311"/><ellipse cx="298.7267" cy="327" fill="#ADD1B2" rx="11" ry="11" style="stroke:#181818;stroke-width:1.0;"/><path d="M301.4923,322.875 Q301.6486,322.6563 301.8361,322.5469 Q302.0236,322.4375 302.2423,322.4375 Q302.6173,322.4375 302.8517,322.7031 Q303.0861,322.9531 303.0861,323.5625 L303.0861,325.0156 Q303.0861,325.625 302.8517,325.8906 Q302.6173,326.1563 302.2423,326.1563 Q301.8986,326.1563 301.6954,325.9531 Q301.4923,325.7656 301.3829,325.25 Q301.3361,324.8906 301.1486,324.7031 Q300.8204,324.3281 300.2111,324.1094 Q299.6017,323.8906 298.9767,323.8906 Q298.2111,323.8906 297.5704,324.2188 Q296.9454,324.5469 296.4454,325.2969 Q295.9611,326.0469 295.9611,327.0781 L295.9611,328.1719 Q295.9611,329.4063 296.8517,330.2344 Q297.7423,331.0469 299.3361,331.0469 Q300.2736,331.0469 300.9298,330.7969 Q301.3204,330.6406 301.7423,330.2031 Q302.0079,329.9375 302.1486,329.8594 Q302.3048,329.7813 302.5079,329.7813 Q302.8361,329.7813 303.0861,330.0469 Q303.3517,330.2969 303.3517,330.6406 Q303.3517,330.9844 303.0079,331.3906 Q302.5079,331.9688 301.7111,332.2969 Q300.6329,332.75 299.3361,332.75 Q297.8204,332.75 296.6173,332.125 Q295.6329,331.625 294.9454,330.5625 Q294.2579,329.4844 294.2579,328.2031 L294.2579,327.0469 Q294.2579,325.7188 294.8673,324.5781 Q295.4923,323.4219 296.5861,322.8125 Q297.6798,322.1875 298.9142,322.1875 Q299.6486,322.1875 300.2892,322.3594 Q300.9454,322.5156 301.4923,322.875 Z " fill="#000000"/><text fill="#000000" font-family="sans-serif" font-size="14" lengthAdjust="spacing" textLength="77" x="312.7267" y="332.7285">SensorType</text><line style="stroke:#181818;stroke-width:0.5;" x1="284.7267" x2="391.7267" y1="343" y2="343"/><line style="stroke:#181818;stroke-width:0.5;" x1="284.7267" x2="391.7267" y1="351" y2="351"/></g><!--MD5=[11008d568be52109e77f2977709dd853]
class ICommand--><g id="elem_ICommand"><rect fill="#F1F1F1" height="48" id="ICommand" rx="2.5" ry="2.5" style="stroke:#181818;stroke-width:0.5;" width="99" x="427.7267" y="311"/><ellipse cx="442.7267" cy="327" fill="#ADD1B2" rx="11" ry="11" style="stroke:#181818;stroke-width:1.0;"/><path d="M445.4923,322.875 Q445.6486,322.6563 445.8361,322.5469 Q446.0236,322.4375 446.2423,322.4375 Q446.6173,322.4375 446.8517,322.7031 Q447.0861,322.9531 447.0861,323.5625 L447.0861,325.0156 Q447.0861,325.625 446.8517,325.8906 Q446.6173,326.1563 446.2423,326.1563 Q445.8986,326.1563 445.6954,325.9531 Q445.4923,325.7656 445.3829,325.25 Q445.3361,324.8906 445.1486,324.7031 Q444.8204,324.3281 444.2111,324.1094 Q443.6017,323.8906 442.9767,323.8906 Q442.2111,323.8906 441.5704,324.2188 Q440.9454,324.5469 440.4454,325.2969 Q439.9611,326.0469 439.9611,327.0781 L439.9611,328.1719 Q439.9611,329.4063 440.8517,330.2344 Q441.7423,331.0469 443.3361,331.0469 Q444.2736,331.0469 444.9298,330.7969 Q445.3204,330.6406 445.7423,330.2031 Q446.0079,329.9375 446.1486,329.8594 Q446.3048,329.7813 446.5079,329.7813 Q446.8361,329.7813 447.0861,330.0469 Q447.3517,330.2969 447.3517,330.6406 Q447.3517,330.9844 447.0079,331.3906 Q446.5079,331.9688 445.7111,332.2969 Q444.6329,332.75 443.3361,332.75 Q441.8204,332.75 440.6173,332.125 Q439.6329,331.625 438.9454,330.5625 Q438.2579,329.4844 438.2579,328.2031 L438.2579,327.0469 Q438.2579,325.7188 438.8673,324.5781 Q439.4923,323.4219 440.5861,322.8125 Q441.6798,322.1875 442.9142,322.1875 Q443.6486,322.1875 444.2892,322.3594 Q444.9454,322.5156 445.4923,322.875 Z " fill="#000000"/><text fill="#000000" font-family="sans-serif" font-size="14" lengthAdjust="spacing" textLength="67" x="456.7267" y="332.7285">ICommand</text><line style="stroke:#181818;stroke-width:0.5;" x1="428.7267" x2="525.7267" y1="343" y2="343"/><line style="stroke:#181818;stroke-width:0.5;" x1="428.7267" x2="525.7267" y1="351" y2="351"/></g><!--MD5=[972039ad99dc31409d051f6f398c71f3]
reverse link Bindable to AddSensorViewModel--><g id="link_Bindable_AddSensorViewModel"><path codeLine="10" d="M407.2267,75.38 C407.2267,87.68 407.2267,101.37 407.2267,114.74 " fill="none" id="Bindable-backto-AddSensorViewModel" style="stroke:#181818;stroke-width:1.0;"/><polygon fill="none" points="400.2267,75.11,407.2267,55.11,414.2267,75.11,400.2267,75.11" style="stroke:#181818;stroke-width:1.0;"/></g><!--MD5=[7c0a8f600d1eef86d17032ed5aed3db6]
link AddSensorViewModel to IEnumerable`1--><g id="link_AddSensorViewModel_IEnumerable`1"><path codeLine="11" d="M306.1167,251.1 C275.6967,271.3 244.1067,292.26 220.3067,308.06 " fill="none" id="AddSensorViewModel-to-IEnumerable`1" style="stroke:#181818;stroke-width:1.0;"/><polygon fill="#181818" points="215.9567,310.95,225.6705,309.3244,220.1279,308.193,221.2593,302.6504,215.9567,310.95" style="stroke:#181818;stroke-width:1.0;"/><text fill="#000000" font-family="sans-serif" font-size="13" lengthAdjust="spacing" textLength="194" x="6" y="300.2773">SensorTypeValues&lt;SensorType&gt;</text></g><!--MD5=[9e202bf1ba773ef5b78f2f8a87851e8d]
link AddSensorViewModel to SensorType--><g id="link_AddSensorViewModel_SensorType"><path codeLine="12" d="M376.3567,251.1 C367.4467,270.47 358.2067,290.55 351.0567,306.1 " fill="none" id="AddSensorViewModel-to-SensorType" style="stroke:#181818;stroke-width:1.0;"/><polygon fill="#181818" points="348.9067,310.77,356.2971,304.2598,350.9929,306.226,349.0267,300.9219,348.9067,310.77" style="stroke:#181818;stroke-width:1.0;"/><text fill="#000000" font-family="sans-serif" font-size="13" lengthAdjust="spacing" textLength="79" x="262.5216" y="300.0512">SelectedType</text></g><!--MD5=[10e3585e08d3c1df966210eeb1ec52a0]
link AddSensorViewModel to ICommand--><g id="link_AddSensorViewModel_ICommand"><path codeLine="13" d="M425.8467,251.1 C434.5767,270.47 444.7867,290.55 454.0167,306.1 " fill="none" id="AddSensorViewModel-to-ICommand" style="stroke:#181818;stroke-width:1.0;"/><polygon fill="#181818" points="456.8467,310.77,455.6078,300.9994,454.2574,306.4927,448.7641,305.1422,456.8467,310.77" style="stroke:#181818;stroke-width:1.0;"/><text fill="#000000" font-family="sans-serif" font-size="13" lengthAdjust="spacing" textLength="87" x="389.0962" y="300.0512">SaveCommand</text></g><!--MD5=[10e3585e08d3c1df966210eeb1ec52a0]
link AddSensorViewModel to ICommand--><g id="link_AddSensorViewModel_ICommand"><path codeLine="14" d="M451.9667,251.1 C461.2567,270.31 469.6767,290.21 474.8467,305.69 " fill="none" id="AddSensorViewModel-to-ICommand-1" style="stroke:#181818;stroke-width:1.0;"/><polygon fill="#181818" points="476.4767,310.77,477.5583,300.9807,474.9601,306.0056,469.9352,303.4073,476.4767,310.77" style="stroke:#181818;stroke-width:1.0;"/><text fill="#000000" font-family="sans-serif" font-size="13" lengthAdjust="spacing" textLength="99" x="488.9689" y="300.0512">CancelCommand</text></g><!--MD5=[7dc1a971d8b5f02e3a60021d3d558395]
@startuml
class AddSensorViewModel {
    + {static}  <<event>> SaveEvent : EventHandler<GenericSensor> 
    + {static}  <<event>> CancelEvent : EventHandler 
    + Room : string <<get>> <<set>>
    + Name : string <<get>> <<set>>
    + AddSensorViewModel()
}
class "IEnumerable`1"<T> {
}
Bindable <|- - AddSensorViewModel
AddSensorViewModel - -> "SensorTypeValues<SensorType>" "IEnumerable`1"
AddSensorViewModel - -> "SelectedType" SensorType
AddSensorViewModel - -> "SaveCommand" ICommand
AddSensorViewModel - -> "CancelCommand" ICommand
@enduml

PlantUML version 1.2022.7(Mon Aug 22 19:01:30 CEST 2022)
(GPL source distribution)
Java Runtime: Java(TM) SE Runtime Environment
JVM: Java HotSpot(TM) 64-Bit Server VM
Default Encoding: Cp1252
Language: de
Country: DE
--></g></svg>