<?xml version="1.0" encoding="UTF-8" standalone="no"?><svg xmlns="http://www.w3.org/2000/svg" xmlns:xlink="http://www.w3.org/1999/xlink" contentStyleType="text/css" height="198px" preserveAspectRatio="none" style="width:129px;height:198px;background:#FFFFFF;" version="1.1" viewBox="0 0 129 198" width="129px" zoomAndPan="magnify"><defs/><g><!--MD5=[e6c809820d88acc3564faeb20394ab9d]
class MainWindow--><g id="elem_MainWindow"><rect codeLine="1" fill="#F1F1F1" height="76.3125" id="MainWindow" rx="2.5" ry="2.5" style="stroke:#181818;stroke-width:0.5;" width="115" x="7" y="115"/><ellipse cx="23.8" cy="136.3516" fill="#ADD1B2" rx="11" ry="11" style="stroke:#181818;stroke-width:1.0;"/><path d="M26.5656,132.2266 Q26.7219,132.0078 26.9094,131.8984 Q27.0969,131.7891 27.3156,131.7891 Q27.6906,131.7891 27.925,132.0547 Q28.1594,132.3047 28.1594,132.9141 L28.1594,134.3672 Q28.1594,134.9766 27.925,135.2422 Q27.6906,135.5078 27.3156,135.5078 Q26.9719,135.5078 26.7688,135.3047 Q26.5656,135.1172 26.4563,134.6016 Q26.4094,134.2422 26.2219,134.0547 Q25.8938,133.6797 25.2844,133.4609 Q24.675,133.2422 24.05,133.2422 Q23.2844,133.2422 22.6438,133.5703 Q22.0188,133.8984 21.5188,134.6484 Q21.0344,135.3984 21.0344,136.4297 L21.0344,137.5234 Q21.0344,138.7578 21.925,139.5859 Q22.8156,140.3984 24.4094,140.3984 Q25.3469,140.3984 26.0031,140.1484 Q26.3938,139.9922 26.8156,139.5547 Q27.0813,139.2891 27.2219,139.2109 Q27.3781,139.1328 27.5813,139.1328 Q27.9094,139.1328 28.1594,139.3984 Q28.425,139.6484 28.425,139.9922 Q28.425,140.3359 28.0813,140.7422 Q27.5813,141.3203 26.7844,141.6484 Q25.7063,142.1016 24.4094,142.1016 Q22.8938,142.1016 21.6906,141.4766 Q20.7063,140.9766 20.0188,139.9141 Q19.3313,138.8359 19.3313,137.5547 L19.3313,136.3984 Q19.3313,135.0703 19.9406,133.9297 Q20.5656,132.7734 21.6594,132.1641 Q22.7531,131.5391 23.9875,131.5391 Q24.7219,131.5391 25.3625,131.7109 Q26.0188,131.8672 26.5656,132.2266 Z " fill="#000000"/><text fill="#000000" font-family="sans-serif" font-size="12" font-style="italic" lengthAdjust="spacing" textLength="48" x="53.7" y="132.457">«partial»</text><text fill="#000000" font-family="sans-serif" font-size="14" lengthAdjust="spacing" textLength="79" x="38.2" y="149.627">MainWindow</text><line style="stroke:#181818;stroke-width:0.5;" x1="8" x2="121" y1="157.7031" y2="157.7031"/><line style="stroke:#181818;stroke-width:0.5;" x1="8" x2="121" y1="165.7031" y2="165.7031"/><ellipse cx="18" cy="180.0078" fill="#84BE84" rx="3" ry="3" style="stroke:#038048;stroke-width:1.0;"/><text fill="#000000" font-family="sans-serif" font-size="14" lengthAdjust="spacing" textLength="89" x="27" y="184.2363">MainWindow()</text></g><!--MD5=[fa22f29c53ed6d2510bea2e0aa245b7f]
class Window--><g id="elem_Window"><rect fill="#F1F1F1" height="48" id="Window" rx="2.5" ry="2.5" style="stroke:#181818;stroke-width:0.5;" width="81" x="24" y="7"/><ellipse cx="39" cy="23" fill="#ADD1B2" rx="11" ry="11" style="stroke:#181818;stroke-width:1.0;"/><path d="M41.7656,18.875 Q41.9219,18.6563 42.1094,18.5469 Q42.2969,18.4375 42.5156,18.4375 Q42.8906,18.4375 43.125,18.7031 Q43.3594,18.9531 43.3594,19.5625 L43.3594,21.0156 Q43.3594,21.625 43.125,21.8906 Q42.8906,22.1563 42.5156,22.1563 Q42.1719,22.1563 41.9688,21.9531 Q41.7656,21.7656 41.6563,21.25 Q41.6094,20.8906 41.4219,20.7031 Q41.0938,20.3281 40.4844,20.1094 Q39.875,19.8906 39.25,19.8906 Q38.4844,19.8906 37.8438,20.2188 Q37.2188,20.5469 36.7188,21.2969 Q36.2344,22.0469 36.2344,23.0781 L36.2344,24.1719 Q36.2344,25.4063 37.125,26.2344 Q38.0156,27.0469 39.6094,27.0469 Q40.5469,27.0469 41.2031,26.7969 Q41.5938,26.6406 42.0156,26.2031 Q42.2813,25.9375 42.4219,25.8594 Q42.5781,25.7813 42.7813,25.7813 Q43.1094,25.7813 43.3594,26.0469 Q43.625,26.2969 43.625,26.6406 Q43.625,26.9844 43.2813,27.3906 Q42.7813,27.9688 41.9844,28.2969 Q40.9063,28.75 39.6094,28.75 Q38.0938,28.75 36.8906,28.125 Q35.9063,27.625 35.2188,26.5625 Q34.5313,25.4844 34.5313,24.2031 L34.5313,23.0469 Q34.5313,21.7188 35.1406,20.5781 Q35.7656,19.4219 36.8594,18.8125 Q37.9531,18.1875 39.1875,18.1875 Q39.9219,18.1875 40.5625,18.3594 Q41.2188,18.5156 41.7656,18.875 Z " fill="#000000"/><text fill="#000000" font-family="sans-serif" font-size="14" lengthAdjust="spacing" textLength="49" x="53" y="28.7285">Window</text><line style="stroke:#181818;stroke-width:0.5;" x1="25" x2="104" y1="39" y2="39"/><line style="stroke:#181818;stroke-width:0.5;" x1="25" x2="104" y1="47" y2="47"/></g><!--MD5=[2c1334d90ebd1e6bcc6782675d0467d8]
reverse link Window to MainWindow--><g id="link_Window_MainWindow"><path codeLine="4" d="M64.5,75.34 C64.5,88.26 64.5,102.29 64.5,114.77 " fill="none" id="Window-backto-MainWindow" style="stroke:#181818;stroke-width:1.0;"/><polygon fill="none" points="57.5,75.14,64.5,55.14,71.5,75.14,57.5,75.14" style="stroke:#181818;stroke-width:1.0;"/></g><!--MD5=[7b080a0b96b6f925f7b4006a77485001]
@startuml
class MainWindow <<partial>> {
    + MainWindow()
}
Window <|- - MainWindow
@enduml

PlantUML version 1.2022.7(Mon Aug 22 19:01:30 CEST 2022)
(GPL source distribution)
Java Runtime: Java(TM) SE Runtime Environment
JVM: Java HotSpot(TM) 64-Bit Server VM
Default Encoding: Cp1252
Language: de
Country: DE
--></g></svg>