<?xml version="1.0" encoding="UTF-8" standalone="no"?><svg xmlns="http://www.w3.org/2000/svg" xmlns:xlink="http://www.w3.org/1999/xlink" contentStyleType="text/css" height="205px" preserveAspectRatio="none" style="width:609px;height:205px;background:#FFFFFF;" version="1.1" viewBox="0 0 609 205" width="609px" zoomAndPan="magnify"><defs/><g><!--MD5=[da5ff24fa1238849504f2a5e1e14def1]
class BoolToTurnOnOffConverter--><g id="elem_BoolToTurnOnOffConverter"><rect codeLine="1" fill="#F1F1F1" height="83.2188" id="BoolToTurnOnOffConverter" rx="2.5" ry="2.5" style="stroke:#181818;stroke-width:0.5;" width="595" x="7" y="115"/><ellipse cx="212.25" cy="131" fill="#ADD1B2" rx="11" ry="11" style="stroke:#181818;stroke-width:1.0;"/><path d="M215.0156,126.875 Q215.1719,126.6563 215.3594,126.5469 Q215.5469,126.4375 215.7656,126.4375 Q216.1406,126.4375 216.375,126.7031 Q216.6094,126.9531 216.6094,127.5625 L216.6094,129.0156 Q216.6094,129.625 216.375,129.8906 Q216.1406,130.1563 215.7656,130.1563 Q215.4219,130.1563 215.2188,129.9531 Q215.0156,129.7656 214.9063,129.25 Q214.8594,128.8906 214.6719,128.7031 Q214.3438,128.3281 213.7344,128.1094 Q213.125,127.8906 212.5,127.8906 Q211.7344,127.8906 211.0938,128.2188 Q210.4688,128.5469 209.9688,129.2969 Q209.4844,130.0469 209.4844,131.0781 L209.4844,132.1719 Q209.4844,133.4063 210.375,134.2344 Q211.2656,135.0469 212.8594,135.0469 Q213.7969,135.0469 214.4531,134.7969 Q214.8438,134.6406 215.2656,134.2031 Q215.5313,133.9375 215.6719,133.8594 Q215.8281,133.7813 216.0313,133.7813 Q216.3594,133.7813 216.6094,134.0469 Q216.875,134.2969 216.875,134.6406 Q216.875,134.9844 216.5313,135.3906 Q216.0313,135.9688 215.2344,136.2969 Q214.1563,136.75 212.8594,136.75 Q211.3438,136.75 210.1406,136.125 Q209.1563,135.625 208.4688,134.5625 Q207.7813,133.4844 207.7813,132.2031 L207.7813,131.0469 Q207.7813,129.7188 208.3906,128.5781 Q209.0156,127.4219 210.1094,126.8125 Q211.2031,126.1875 212.4375,126.1875 Q213.1719,126.1875 213.8125,126.3594 Q214.4688,126.5156 215.0156,126.875 Z " fill="#000000"/><text fill="#000000" font-family="sans-serif" font-size="14" lengthAdjust="spacing" textLength="176" x="232.75" y="136.7285">BoolToTurnOnOffConverter</text><line style="stroke:#181818;stroke-width:0.5;" x1="8" x2="601" y1="147" y2="147"/><line style="stroke:#181818;stroke-width:0.5;" x1="8" x2="601" y1="155" y2="155"/><ellipse cx="18" cy="169.3047" fill="#84BE84" rx="3" ry="3" style="stroke:#038048;stroke-width:1.0;"/><text fill="#000000" font-family="sans-serif" font-size="14" lengthAdjust="spacing" textLength="538" x="27" y="173.5332">Convert(value:object, targetType:Type, parameter:object, culture:CultureInfo) : object</text><ellipse cx="18" cy="186.9141" fill="#84BE84" rx="3" ry="3" style="stroke:#038048;stroke-width:1.0;"/><text fill="#000000" font-family="sans-serif" font-size="14" lengthAdjust="spacing" textLength="569" x="27" y="191.1426">ConvertBack(value:object, targetType:Type, parameter:object, culture:CultureInfo) : object</text></g><!--MD5=[0466482292fe990ff730323dab7dddac]
class IValueConverter--><g id="elem_IValueConverter"><rect fill="#F1F1F1" height="48" id="IValueConverter" rx="2.5" ry="2.5" style="stroke:#181818;stroke-width:0.5;" width="134" x="237.5" y="7"/><ellipse cx="252.5" cy="23" fill="#ADD1B2" rx="11" ry="11" style="stroke:#181818;stroke-width:1.0;"/><path d="M255.2656,18.875 Q255.4219,18.6563 255.6094,18.5469 Q255.7969,18.4375 256.0156,18.4375 Q256.3906,18.4375 256.625,18.7031 Q256.8594,18.9531 256.8594,19.5625 L256.8594,21.0156 Q256.8594,21.625 256.625,21.8906 Q256.3906,22.1563 256.0156,22.1563 Q255.6719,22.1563 255.4688,21.9531 Q255.2656,21.7656 255.1563,21.25 Q255.1094,20.8906 254.9219,20.7031 Q254.5938,20.3281 253.9844,20.1094 Q253.375,19.8906 252.75,19.8906 Q251.9844,19.8906 251.3438,20.2188 Q250.7188,20.5469 250.2188,21.2969 Q249.7344,22.0469 249.7344,23.0781 L249.7344,24.1719 Q249.7344,25.4063 250.625,26.2344 Q251.5156,27.0469 253.1094,27.0469 Q254.0469,27.0469 254.7031,26.7969 Q255.0938,26.6406 255.5156,26.2031 Q255.7813,25.9375 255.9219,25.8594 Q256.0781,25.7813 256.2813,25.7813 Q256.6094,25.7813 256.8594,26.0469 Q257.125,26.2969 257.125,26.6406 Q257.125,26.9844 256.7813,27.3906 Q256.2813,27.9688 255.4844,28.2969 Q254.4063,28.75 253.1094,28.75 Q251.5938,28.75 250.3906,28.125 Q249.4063,27.625 248.7188,26.5625 Q248.0313,25.4844 248.0313,24.2031 L248.0313,23.0469 Q248.0313,21.7188 248.6406,20.5781 Q249.2656,19.4219 250.3594,18.8125 Q251.4531,18.1875 252.6875,18.1875 Q253.4219,18.1875 254.0625,18.3594 Q254.7188,18.5156 255.2656,18.875 Z " fill="#000000"/><text fill="#000000" font-family="sans-serif" font-size="14" lengthAdjust="spacing" textLength="102" x="266.5" y="28.7285">IValueConverter</text><line style="stroke:#181818;stroke-width:0.5;" x1="238.5" x2="370.5" y1="39" y2="39"/><line style="stroke:#181818;stroke-width:0.5;" x1="238.5" x2="370.5" y1="47" y2="47"/></g><!--MD5=[a0829abd5af6ac7afa76dfb2eec8cd87]
reverse link IValueConverter to BoolToTurnOnOffConverter--><g id="link_IValueConverter_BoolToTurnOnOffConverter"><path codeLine="5" d="M304.5,75.31 C304.5,88.16 304.5,102.19 304.5,114.87 " fill="none" id="IValueConverter-backto-BoolToTurnOnOffConverter" style="stroke:#181818;stroke-width:1.0;"/><polygon fill="none" points="297.5,75.23,304.5,55.23,311.5,75.23,297.5,75.23" style="stroke:#181818;stroke-width:1.0;"/></g><!--MD5=[be6efd16f03f66278ae62dd7d8a8140e]
@startuml
class BoolToTurnOnOffConverter {
    + Convert(value:object, targetType:Type, parameter:object, culture:CultureInfo) : object
    + ConvertBack(value:object, targetType:Type, parameter:object, culture:CultureInfo) : object
}
IValueConverter <|- - BoolToTurnOnOffConverter
@enduml

PlantUML version 1.2022.7(Mon Aug 22 19:01:30 CEST 2022)
(GPL source distribution)
Java Runtime: Java(TM) SE Runtime Environment
JVM: Java HotSpot(TM) 64-Bit Server VM
Default Encoding: Cp1252
Language: de
Country: DE
--></g></svg>