<?xml version="1.0" encoding="UTF-8" standalone="no"?><svg xmlns="http://www.w3.org/2000/svg" xmlns:xlink="http://www.w3.org/1999/xlink" contentStyleType="text/css" height="205px" preserveAspectRatio="none" style="width:609px;height:205px;background:#FFFFFF;" version="1.1" viewBox="0 0 609 205" width="609px" zoomAndPan="magnify"><defs/><g><!--MD5=[79f79ed5651fe620b698c852ce7f0acb]
class BoolToOnOffConverter--><g id="elem_BoolToOnOffConverter"><rect codeLine="1" fill="#F1F1F1" height="83.2188" id="BoolToOnOffConverter" rx="2.5" ry="2.5" style="stroke:#181818;stroke-width:0.5;" width="595" x="7" y="115"/><ellipse cx="227.25" cy="131" fill="#ADD1B2" rx="11" ry="11" style="stroke:#181818;stroke-width:1.0;"/><path d="M230.0156,126.875 Q230.1719,126.6563 230.3594,126.5469 Q230.5469,126.4375 230.7656,126.4375 Q231.1406,126.4375 231.375,126.7031 Q231.6094,126.9531 231.6094,127.5625 L231.6094,129.0156 Q231.6094,129.625 231.375,129.8906 Q231.1406,130.1563 230.7656,130.1563 Q230.4219,130.1563 230.2188,129.9531 Q230.0156,129.7656 229.9063,129.25 Q229.8594,128.8906 229.6719,128.7031 Q229.3438,128.3281 228.7344,128.1094 Q228.125,127.8906 227.5,127.8906 Q226.7344,127.8906 226.0938,128.2188 Q225.4688,128.5469 224.9688,129.2969 Q224.4844,130.0469 224.4844,131.0781 L224.4844,132.1719 Q224.4844,133.4063 225.375,134.2344 Q226.2656,135.0469 227.8594,135.0469 Q228.7969,135.0469 229.4531,134.7969 Q229.8438,134.6406 230.2656,134.2031 Q230.5313,133.9375 230.6719,133.8594 Q230.8281,133.7813 231.0313,133.7813 Q231.3594,133.7813 231.6094,134.0469 Q231.875,134.2969 231.875,134.6406 Q231.875,134.9844 231.5313,135.3906 Q231.0313,135.9688 230.2344,136.2969 Q229.1563,136.75 227.8594,136.75 Q226.3438,136.75 225.1406,136.125 Q224.1563,135.625 223.4688,134.5625 Q222.7813,133.4844 222.7813,132.2031 L222.7813,131.0469 Q222.7813,129.7188 223.3906,128.5781 Q224.0156,127.4219 225.1094,126.8125 Q226.2031,126.1875 227.4375,126.1875 Q228.1719,126.1875 228.8125,126.3594 Q229.4688,126.5156 230.0156,126.875 Z " fill="#000000"/><text fill="#000000" font-family="sans-serif" font-size="14" lengthAdjust="spacing" textLength="146" x="247.75" y="136.7285">BoolToOnOffConverter</text><line style="stroke:#181818;stroke-width:0.5;" x1="8" x2="601" y1="147" y2="147"/><line style="stroke:#181818;stroke-width:0.5;" x1="8" x2="601" y1="155" y2="155"/><ellipse cx="18" cy="169.3047" fill="#84BE84" rx="3" ry="3" style="stroke:#038048;stroke-width:1.0;"/><text fill="#000000" font-family="sans-serif" font-size="14" lengthAdjust="spacing" textLength="538" x="27" y="173.5332">Convert(value:object, targetType:Type, parameter:object, culture:CultureInfo) : object</text><ellipse cx="18" cy="186.9141" fill="#84BE84" rx="3" ry="3" style="stroke:#038048;stroke-width:1.0;"/><text fill="#000000" font-family="sans-serif" font-size="14" lengthAdjust="spacing" textLength="569" x="27" y="191.1426">ConvertBack(value:object, targetType:Type, parameter:object, culture:CultureInfo) : object</text></g><!--MD5=[0466482292fe990ff730323dab7dddac]
class IValueConverter--><g id="elem_IValueConverter"><rect fill="#F1F1F1" height="48" id="IValueConverter" rx="2.5" ry="2.5" style="stroke:#181818;stroke-width:0.5;" width="134" x="237.5" y="7"/><ellipse cx="252.5" cy="23" fill="#ADD1B2" rx="11" ry="11" style="stroke:#181818;stroke-width:1.0;"/><path d="M255.2656,18.875 Q255.4219,18.6563 255.6094,18.5469 Q255.7969,18.4375 256.0156,18.4375 Q256.3906,18.4375 256.625,18.7031 Q256.8594,18.9531 256.8594,19.5625 L256.8594,21.0156 Q256.8594,21.625 256.625,21.8906 Q256.3906,22.1563 256.0156,22.1563 Q255.6719,22.1563 255.4688,21.9531 Q255.2656,21.7656 255.1563,21.25 Q255.1094,20.8906 254.9219,20.7031 Q254.5938,20.3281 253.9844,20.1094 Q253.375,19.8906 252.75,19.8906 Q251.9844,19.8906 251.3438,20.2188 Q250.7188,20.5469 250.2188,21.2969 Q249.7344,22.0469 249.7344,23.0781 L249.7344,24.1719 Q249.7344,25.4063 250.625,26.2344 Q251.5156,27.0469 253.1094,27.0469 Q254.0469,27.0469 254.7031,26.7969 Q255.0938,26.6406 255.5156,26.2031 Q255.7813,25.9375 255.9219,25.8594 Q256.0781,25.7813 256.2813,25.7813 Q256.6094,25.7813 256.8594,26.0469 Q257.125,26.2969 257.125,26.6406 Q257.125,26.9844 256.7813,27.3906 Q256.2813,27.9688 255.4844,28.2969 Q254.4063,28.75 253.1094,28.75 Q251.5938,28.75 250.3906,28.125 Q249.4063,27.625 248.7188,26.5625 Q248.0313,25.4844 248.0313,24.2031 L248.0313,23.0469 Q248.0313,21.7188 248.6406,20.5781 Q249.2656,19.4219 250.3594,18.8125 Q251.4531,18.1875 252.6875,18.1875 Q253.4219,18.1875 254.0625,18.3594 Q254.7188,18.5156 255.2656,18.875 Z " fill="#000000"/><text fill="#000000" font-family="sans-serif" font-size="14" lengthAdjust="spacing" textLength="102" x="266.5" y="28.7285">IValueConverter</text><line style="stroke:#181818;stroke-width:0.5;" x1="238.5" x2="370.5" y1="39" y2="39"/><line style="stroke:#181818;stroke-width:0.5;" x1="238.5" x2="370.5" y1="47" y2="47"/></g><!--MD5=[692fbf390d2029efec9bcb7d3223561a]
reverse link IValueConverter to BoolToOnOffConverter--><g id="link_IValueConverter_BoolToOnOffConverter"><path codeLine="5" d="M304.5,75.31 C304.5,88.16 304.5,102.19 304.5,114.87 " fill="none" id="IValueConverter-backto-BoolToOnOffConverter" style="stroke:#181818;stroke-width:1.0;"/><polygon fill="none" points="297.5,75.23,304.5,55.23,311.5,75.23,297.5,75.23" style="stroke:#181818;stroke-width:1.0;"/></g><!--MD5=[177c771be012d97f4864cec4497a19ea]
@startuml
class BoolToOnOffConverter {
    + Convert(value:object, targetType:Type, parameter:object, culture:CultureInfo) : object
    + ConvertBack(value:object, targetType:Type, parameter:object, culture:CultureInfo) : object
}
IValueConverter <|- - BoolToOnOffConverter
@enduml

PlantUML version 1.2022.7(Mon Aug 22 19:01:30 CEST 2022)
(GPL source distribution)
Java Runtime: Java(TM) SE Runtime Environment
JVM: Java HotSpot(TM) 64-Bit Server VM
Default Encoding: Cp1252
Language: de
Country: DE
--></g></svg>