<?xml version="1.0" encoding="UTF-8" standalone="no"?><svg xmlns="http://www.w3.org/2000/svg" xmlns:xlink="http://www.w3.org/1999/xlink" contentStyleType="text/css" height="331px" preserveAspectRatio="none" style="width:291px;height:331px;background:#FFFFFF;" version="1.1" viewBox="0 0 291 331" width="291px" zoomAndPan="magnify"><defs/><g><!--MD5=[a3cbc495a0d5ceaee60e4c460cd98786]
class ChangeTempViewModel--><g id="elem_ChangeTempViewModel"><rect codeLine="1" fill="#F1F1F1" height="100.8281" id="ChangeTempViewModel" rx="2.5" ry="2.5" style="stroke:#181818;stroke-width:0.5;" width="277" x="7" y="115"/><ellipse cx="64.75" cy="131" fill="#ADD1B2" rx="11" ry="11" style="stroke:#181818;stroke-width:1.0;"/><path d="M67.5156,126.875 Q67.6719,126.6563 67.8594,126.5469 Q68.0469,126.4375 68.2656,126.4375 Q68.6406,126.4375 68.875,126.7031 Q69.1094,126.9531 69.1094,127.5625 L69.1094,129.0156 Q69.1094,129.625 68.875,129.8906 Q68.6406,130.1563 68.2656,130.1563 Q67.9219,130.1563 67.7188,129.9531 Q67.5156,129.7656 67.4063,129.25 Q67.3594,128.8906 67.1719,128.7031 Q66.8438,128.3281 66.2344,128.1094 Q65.625,127.8906 65,127.8906 Q64.2344,127.8906 63.5938,128.2188 Q62.9688,128.5469 62.4688,129.2969 Q61.9844,130.0469 61.9844,131.0781 L61.9844,132.1719 Q61.9844,133.4063 62.875,134.2344 Q63.7656,135.0469 65.3594,135.0469 Q66.2969,135.0469 66.9531,134.7969 Q67.3438,134.6406 67.7656,134.2031 Q68.0313,133.9375 68.1719,133.8594 Q68.3281,133.7813 68.5313,133.7813 Q68.8594,133.7813 69.1094,134.0469 Q69.375,134.2969 69.375,134.6406 Q69.375,134.9844 69.0313,135.3906 Q68.5313,135.9688 67.7344,136.2969 Q66.6563,136.75 65.3594,136.75 Q63.8438,136.75 62.6406,136.125 Q61.6563,135.625 60.9688,134.5625 Q60.2813,133.4844 60.2813,132.2031 L60.2813,131.0469 Q60.2813,129.7188 60.8906,128.5781 Q61.5156,127.4219 62.6094,126.8125 Q63.7031,126.1875 64.9375,126.1875 Q65.6719,126.1875 66.3125,126.3594 Q66.9688,126.5156 67.5156,126.875 Z " fill="#000000"/><text fill="#000000" font-family="sans-serif" font-size="14" lengthAdjust="spacing" textLength="153" x="85.25" y="136.7285">ChangeTempViewModel</text><line style="stroke:#181818;stroke-width:0.5;" x1="8" x2="283" y1="147" y2="147"/><ellipse cx="18" cy="161.3047" fill="none" rx="3" ry="3" style="stroke:#038048;stroke-width:1.0;"/><text fill="#000000" font-family="sans-serif" font-size="14" lengthAdjust="spacing" text-decoration="underline" textLength="251" x="27" y="165.5332">«event» SaveEvent : EventHandler&lt;int&gt;</text><ellipse cx="18" cy="178.9141" fill="none" rx="3" ry="3" style="stroke:#038048;stroke-width:1.0;"/><text fill="#000000" font-family="sans-serif" font-size="14" lengthAdjust="spacing" text-decoration="underline" textLength="232" x="27" y="183.1426">«event» CancelEvent : EventHandler</text><ellipse cx="18" cy="196.5234" fill="none" rx="3" ry="3" style="stroke:#038048;stroke-width:1.0;"/><text fill="#000000" font-family="sans-serif" font-size="14" lengthAdjust="spacing" textLength="186" x="27" y="200.752">TempValue : int? «get» «set»</text><line style="stroke:#181818;stroke-width:0.5;" x1="8" x2="283" y1="207.8281" y2="207.8281"/></g><!--MD5=[65c4506c46c60cfa938cb2b4b00e1c7d]
class Bindable--><g id="elem_Bindable"><rect fill="#F1F1F1" height="48" id="Bindable" rx="2.5" ry="2.5" style="stroke:#181818;stroke-width:0.5;" width="87" x="102" y="7"/><ellipse cx="117" cy="23" fill="#ADD1B2" rx="11" ry="11" style="stroke:#181818;stroke-width:1.0;"/><path d="M119.7656,18.875 Q119.9219,18.6563 120.1094,18.5469 Q120.2969,18.4375 120.5156,18.4375 Q120.8906,18.4375 121.125,18.7031 Q121.3594,18.9531 121.3594,19.5625 L121.3594,21.0156 Q121.3594,21.625 121.125,21.8906 Q120.8906,22.1563 120.5156,22.1563 Q120.1719,22.1563 119.9688,21.9531 Q119.7656,21.7656 119.6563,21.25 Q119.6094,20.8906 119.4219,20.7031 Q119.0938,20.3281 118.4844,20.1094 Q117.875,19.8906 117.25,19.8906 Q116.4844,19.8906 115.8438,20.2188 Q115.2188,20.5469 114.7188,21.2969 Q114.2344,22.0469 114.2344,23.0781 L114.2344,24.1719 Q114.2344,25.4063 115.125,26.2344 Q116.0156,27.0469 117.6094,27.0469 Q118.5469,27.0469 119.2031,26.7969 Q119.5938,26.6406 120.0156,26.2031 Q120.2813,25.9375 120.4219,25.8594 Q120.5781,25.7813 120.7813,25.7813 Q121.1094,25.7813 121.3594,26.0469 Q121.625,26.2969 121.625,26.6406 Q121.625,26.9844 121.2813,27.3906 Q120.7813,27.9688 119.9844,28.2969 Q118.9063,28.75 117.6094,28.75 Q116.0938,28.75 114.8906,28.125 Q113.9063,27.625 113.2188,26.5625 Q112.5313,25.4844 112.5313,24.2031 L112.5313,23.0469 Q112.5313,21.7188 113.1406,20.5781 Q113.7656,19.4219 114.8594,18.8125 Q115.9531,18.1875 117.1875,18.1875 Q117.9219,18.1875 118.5625,18.3594 Q119.2188,18.5156 119.7656,18.875 Z " fill="#000000"/><text fill="#000000" font-family="sans-serif" font-size="14" lengthAdjust="spacing" textLength="55" x="131" y="28.7285">Bindable</text><line style="stroke:#181818;stroke-width:0.5;" x1="103" x2="188" y1="39" y2="39"/><line style="stroke:#181818;stroke-width:0.5;" x1="103" x2="188" y1="47" y2="47"/></g><!--MD5=[11008d568be52109e77f2977709dd853]
class ICommand--><g id="elem_ICommand"><rect fill="#F1F1F1" height="48" id="ICommand" rx="2.5" ry="2.5" style="stroke:#181818;stroke-width:0.5;" width="99" x="96" y="276"/><ellipse cx="111" cy="292" fill="#ADD1B2" rx="11" ry="11" style="stroke:#181818;stroke-width:1.0;"/><path d="M113.7656,287.875 Q113.9219,287.6563 114.1094,287.5469 Q114.2969,287.4375 114.5156,287.4375 Q114.8906,287.4375 115.125,287.7031 Q115.3594,287.9531 115.3594,288.5625 L115.3594,290.0156 Q115.3594,290.625 115.125,290.8906 Q114.8906,291.1563 114.5156,291.1563 Q114.1719,291.1563 113.9688,290.9531 Q113.7656,290.7656 113.6563,290.25 Q113.6094,289.8906 113.4219,289.7031 Q113.0938,289.3281 112.4844,289.1094 Q111.875,288.8906 111.25,288.8906 Q110.4844,288.8906 109.8438,289.2188 Q109.2188,289.5469 108.7188,290.2969 Q108.2344,291.0469 108.2344,292.0781 L108.2344,293.1719 Q108.2344,294.4063 109.125,295.2344 Q110.0156,296.0469 111.6094,296.0469 Q112.5469,296.0469 113.2031,295.7969 Q113.5938,295.6406 114.0156,295.2031 Q114.2813,294.9375 114.4219,294.8594 Q114.5781,294.7813 114.7813,294.7813 Q115.1094,294.7813 115.3594,295.0469 Q115.625,295.2969 115.625,295.6406 Q115.625,295.9844 115.2813,296.3906 Q114.7813,296.9688 113.9844,297.2969 Q112.9063,297.75 111.6094,297.75 Q110.0938,297.75 108.8906,297.125 Q107.9063,296.625 107.2188,295.5625 Q106.5313,294.4844 106.5313,293.2031 L106.5313,292.0469 Q106.5313,290.7188 107.1406,289.5781 Q107.7656,288.4219 108.8594,287.8125 Q109.9531,287.1875 111.1875,287.1875 Q111.9219,287.1875 112.5625,287.3594 Q113.2188,287.5156 113.7656,287.875 Z " fill="#000000"/><text fill="#000000" font-family="sans-serif" font-size="14" lengthAdjust="spacing" textLength="67" x="125" y="297.7285">ICommand</text><line style="stroke:#181818;stroke-width:0.5;" x1="97" x2="194" y1="308" y2="308"/><line style="stroke:#181818;stroke-width:0.5;" x1="97" x2="194" y1="316" y2="316"/></g><!--MD5=[eda3344679cd34f94db723fc97b4e8c7]
reverse link Bindable to ChangeTempViewModel--><g id="link_Bindable_ChangeTempViewModel"><path codeLine="6" d="M145.5,75.34 C145.5,87.95 145.5,101.82 145.5,114.8 " fill="none" id="Bindable-backto-ChangeTempViewModel" style="stroke:#181818;stroke-width:1.0;"/><polygon fill="none" points="138.5,75.08,145.5,55.08,152.5,75.08,138.5,75.08" style="stroke:#181818;stroke-width:1.0;"/></g><!--MD5=[1d5d23da6d7b4044378148b743df3abe]
link ChangeTempViewModel to ICommand--><g id="link_ChangeTempViewModel_ICommand"><path codeLine="7" d="M133.11,216.22 C132.3,234.56 132.86,254.7 134.81,270.53 " fill="none" id="ChangeTempViewModel-to-ICommand" style="stroke:#181818;stroke-width:1.0;"/><polygon fill="#181818" points="135.52,275.72,138.2453,266.2557,134.8329,270.7674,130.3212,267.355,135.52,275.72" style="stroke:#181818;stroke-width:1.0;"/><text fill="#000000" font-family="sans-serif" font-size="13" lengthAdjust="spacing" textLength="87" x="34.8158" y="264.9884">SaveCommand</text></g><!--MD5=[1d5d23da6d7b4044378148b743df3abe]
link ChangeTempViewModel to ICommand--><g id="link_ChangeTempViewModel_ICommand"><path codeLine="8" d="M158.62,216.22 C159.48,234.56 158.88,254.7 156.82,270.53 " fill="none" id="ChangeTempViewModel-to-ICommand-1" style="stroke:#181818;stroke-width:1.0;"/><polygon fill="#181818" points="156.07,275.72,161.3362,267.3973,156.7971,270.7731,153.4212,266.234,156.07,275.72" style="stroke:#181818;stroke-width:1.0;"/><text fill="#000000" font-family="sans-serif" font-size="13" lengthAdjust="spacing" textLength="99" x="171.4629" y="264.9884">CancelCommand</text></g><!--MD5=[4abede653d69c6e884128da977b56318]
@startuml
class ChangeTempViewModel {
    + {static}  <<event>> SaveEvent : EventHandler<int> 
    + {static}  <<event>> CancelEvent : EventHandler 
    + TempValue : int? <<get>> <<set>>
}
Bindable <|- - ChangeTempViewModel
ChangeTempViewModel - -> "SaveCommand" ICommand
ChangeTempViewModel - -> "CancelCommand" ICommand
@enduml

PlantUML version 1.2022.7(Mon Aug 22 19:01:30 CEST 2022)
(GPL source distribution)
Java Runtime: Java(TM) SE Runtime Environment
JVM: Java HotSpot(TM) 64-Bit Server VM
Default Encoding: Cp1252
Language: de
Country: DE
--></g></svg>