<?xml version="1.0" encoding="UTF-8" standalone="no"?><svg xmlns="http://www.w3.org/2000/svg" xmlns:xlink="http://www.w3.org/1999/xlink" contentStyleType="text/css" height="401px" preserveAspectRatio="none" style="width:631px;height:401px;background:#FFFFFF;" version="1.1" viewBox="0 0 631 401" width="631px" zoomAndPan="magnify"><defs/><g><!--MD5=[7ec303b9a1b07012d304d0b0710773c0]
class GenericSensor--><g id="elem_GenericSensor"><rect codeLine="1" fill="#F1F1F1" height="171.2656" id="GenericSensor" rx="2.5" ry="2.5" style="stroke:#181818;stroke-width:0.5;" width="617" x="7" y="115"/><ellipse cx="263.75" cy="131" fill="#A9DCDF" rx="11" ry="11" style="stroke:#181818;stroke-width:1.0;"/><path d="M265.9375,132.7656 L261.7969,132.7656 L261.375,133.7969 L261.7969,133.7969 Q262.4063,133.7969 262.6719,134.0313 Q262.9375,134.2656 262.9375,134.6563 Q262.9375,135.0313 262.6719,135.2656 Q262.4063,135.5 261.7969,135.5 L259.5,135.5 Q258.8906,135.5 258.6406,135.2656 Q258.375,135.0313 258.375,134.6406 Q258.375,134.2656 258.6563,134.0313 Q258.9219,133.7813 259.5469,133.7969 L262.2188,127.1406 L261.1094,127.1406 Q260.5,127.1406 260.2344,126.9063 Q259.9688,126.6719 259.9688,126.2813 Q259.9688,125.9063 260.2344,125.6719 Q260.5,125.4375 261.1094,125.4375 L264.7813,125.4375 L268.1719,133.7969 Q268.7656,133.7969 268.9531,133.9375 Q269.3438,134.2031 269.3438,134.6563 Q269.3438,135.0313 269.0781,135.2656 Q268.8281,135.5 268.2188,135.5 L265.9219,135.5 Q265.3125,135.5 265.0469,135.2656 Q264.7813,135.0313 264.7813,134.6406 Q264.7813,134.2656 265.0469,134.0313 Q265.3125,133.7969 265.9219,133.7969 L266.3438,133.7969 L265.9375,132.7656 Z M265.2188,131.0625 L263.8594,127.6875 L262.4844,131.0625 L265.2188,131.0625 Z " fill="#000000"/><text fill="#000000" font-family="sans-serif" font-size="14" font-style="italic" lengthAdjust="spacing" textLength="95" x="284.25" y="136.7285">GenericSensor</text><line style="stroke:#181818;stroke-width:0.5;" x1="8" x2="623" y1="147" y2="147"/><ellipse cx="18" cy="161.3047" fill="none" rx="3" ry="3" style="stroke:#038048;stroke-width:1.0;"/><text fill="#000000" font-family="sans-serif" font-size="14" lengthAdjust="spacing" textLength="124" x="27" y="165.5332">Room : string «get»</text><ellipse cx="18" cy="178.9141" fill="none" rx="3" ry="3" style="stroke:#038048;stroke-width:1.0;"/><text fill="#000000" font-family="sans-serif" font-size="14" lengthAdjust="spacing" textLength="123" x="27" y="183.1426">Name : string «get»</text><ellipse cx="18" cy="196.5234" fill="none" rx="3" ry="3" style="stroke:#038048;stroke-width:1.0;"/><text fill="#000000" font-family="sans-serif" font-size="14" lengthAdjust="spacing" textLength="122" x="27" y="200.752">Topic : string «get»</text><ellipse cx="18" cy="214.1328" fill="none" rx="3" ry="3" style="stroke:#038048;stroke-width:1.0;"/><text fill="#000000" font-family="sans-serif" font-size="14" lengthAdjust="spacing" textLength="376" x="27" y="218.3613">«event» PropertyChanged : PropertyChangedEventHandler</text><line style="stroke:#181818;stroke-width:0.5;" x1="8" x2="623" y1="225.4375" y2="225.4375"/><ellipse cx="18" cy="239.7422" fill="#84BE84" rx="3" ry="3" style="stroke:#038048;stroke-width:1.0;"/><text fill="#000000" font-family="sans-serif" font-size="14" lengthAdjust="spacing" textLength="385" x="27" y="243.9707">GenericSensor(id:Guid, room:string, type:string, name:string)</text><ellipse cx="18" cy="257.3516" fill="#84BE84" rx="3" ry="3" style="stroke:#038048;stroke-width:1.0;"/><text fill="#000000" font-family="sans-serif" font-size="14" font-style="italic" lengthAdjust="spacing" textLength="591" x="27" y="261.5801">HandleMessageReceived(sender:object, e:MqttApplicationMessageReceivedEventArgs) : void</text><ellipse cx="18" cy="274.9609" fill="#84BE84" rx="3" ry="3" style="stroke:#038048;stroke-width:1.0;"/><text fill="#000000" font-family="sans-serif" font-size="14" font-style="italic" lengthAdjust="spacing" textLength="133" x="27" y="279.1895">PublishStatus() : void</text></g><!--MD5=[638732a4d9fb0c1bc21919cc2182dbf5]
class INotifyPropertyChanged--><g id="elem_INotifyPropertyChanged"><rect fill="#F1F1F1" height="48" id="INotifyPropertyChanged" rx="2.5" ry="2.5" style="stroke:#181818;stroke-width:0.5;" width="182" x="224.5" y="7"/><ellipse cx="239.5" cy="23" fill="#ADD1B2" rx="11" ry="11" style="stroke:#181818;stroke-width:1.0;"/><path d="M242.2656,18.875 Q242.4219,18.6563 242.6094,18.5469 Q242.7969,18.4375 243.0156,18.4375 Q243.3906,18.4375 243.625,18.7031 Q243.8594,18.9531 243.8594,19.5625 L243.8594,21.0156 Q243.8594,21.625 243.625,21.8906 Q243.3906,22.1563 243.0156,22.1563 Q242.6719,22.1563 242.4688,21.9531 Q242.2656,21.7656 242.1563,21.25 Q242.1094,20.8906 241.9219,20.7031 Q241.5938,20.3281 240.9844,20.1094 Q240.375,19.8906 239.75,19.8906 Q238.9844,19.8906 238.3438,20.2188 Q237.7188,20.5469 237.2188,21.2969 Q236.7344,22.0469 236.7344,23.0781 L236.7344,24.1719 Q236.7344,25.4063 237.625,26.2344 Q238.5156,27.0469 240.1094,27.0469 Q241.0469,27.0469 241.7031,26.7969 Q242.0938,26.6406 242.5156,26.2031 Q242.7813,25.9375 242.9219,25.8594 Q243.0781,25.7813 243.2813,25.7813 Q243.6094,25.7813 243.8594,26.0469 Q244.125,26.2969 244.125,26.6406 Q244.125,26.9844 243.7813,27.3906 Q243.2813,27.9688 242.4844,28.2969 Q241.4063,28.75 240.1094,28.75 Q238.5938,28.75 237.3906,28.125 Q236.4063,27.625 235.7188,26.5625 Q235.0313,25.4844 235.0313,24.2031 L235.0313,23.0469 Q235.0313,21.7188 235.6406,20.5781 Q236.2656,19.4219 237.3594,18.8125 Q238.4531,18.1875 239.6875,18.1875 Q240.4219,18.1875 241.0625,18.3594 Q241.7188,18.5156 242.2656,18.875 Z " fill="#000000"/><text fill="#000000" font-family="sans-serif" font-size="14" lengthAdjust="spacing" textLength="150" x="253.5" y="28.7285">INotifyPropertyChanged</text><line style="stroke:#181818;stroke-width:0.5;" x1="225.5" x2="405.5" y1="39" y2="39"/><line style="stroke:#181818;stroke-width:0.5;" x1="225.5" x2="405.5" y1="47" y2="47"/></g><!--MD5=[b9f3d2915b6b8d0c143f32ccec3f745e]
class Guid--><g id="elem_Guid"><rect fill="#F1F1F1" height="48" id="Guid" rx="2.5" ry="2.5" style="stroke:#181818;stroke-width:0.5;" width="62" x="222.5" y="346"/><ellipse cx="237.5" cy="362" fill="#ADD1B2" rx="11" ry="11" style="stroke:#181818;stroke-width:1.0;"/><path d="M240.2656,357.875 Q240.4219,357.6563 240.6094,357.5469 Q240.7969,357.4375 241.0156,357.4375 Q241.3906,357.4375 241.625,357.7031 Q241.8594,357.9531 241.8594,358.5625 L241.8594,360.0156 Q241.8594,360.625 241.625,360.8906 Q241.3906,361.1563 241.0156,361.1563 Q240.6719,361.1563 240.4688,360.9531 Q240.2656,360.7656 240.1563,360.25 Q240.1094,359.8906 239.9219,359.7031 Q239.5938,359.3281 238.9844,359.1094 Q238.375,358.8906 237.75,358.8906 Q236.9844,358.8906 236.3438,359.2188 Q235.7188,359.5469 235.2188,360.2969 Q234.7344,361.0469 234.7344,362.0781 L234.7344,363.1719 Q234.7344,364.4063 235.625,365.2344 Q236.5156,366.0469 238.1094,366.0469 Q239.0469,366.0469 239.7031,365.7969 Q240.0938,365.6406 240.5156,365.2031 Q240.7813,364.9375 240.9219,364.8594 Q241.0781,364.7813 241.2813,364.7813 Q241.6094,364.7813 241.8594,365.0469 Q242.125,365.2969 242.125,365.6406 Q242.125,365.9844 241.7813,366.3906 Q241.2813,366.9688 240.4844,367.2969 Q239.4063,367.75 238.1094,367.75 Q236.5938,367.75 235.3906,367.125 Q234.4063,366.625 233.7188,365.5625 Q233.0313,364.4844 233.0313,363.2031 L233.0313,362.0469 Q233.0313,360.7188 233.6406,359.5781 Q234.2656,358.4219 235.3594,357.8125 Q236.4531,357.1875 237.6875,357.1875 Q238.4219,357.1875 239.0625,357.3594 Q239.7188,357.5156 240.2656,357.875 Z " fill="#000000"/><text fill="#000000" font-family="sans-serif" font-size="14" lengthAdjust="spacing" textLength="30" x="251.5" y="367.7285">Guid</text><line style="stroke:#181818;stroke-width:0.5;" x1="223.5" x2="283.5" y1="378" y2="378"/><line style="stroke:#181818;stroke-width:0.5;" x1="223.5" x2="283.5" y1="386" y2="386"/></g><!--MD5=[5011627591ee4f7a3d58490c0e7112ca]
class ClientHandler--><g id="elem_ClientHandler"><rect fill="#F1F1F1" height="48" id="ClientHandler" rx="2.5" ry="2.5" style="stroke:#181818;stroke-width:0.5;" width="117" x="320" y="346"/><ellipse cx="335" cy="362" fill="#ADD1B2" rx="11" ry="11" style="stroke:#181818;stroke-width:1.0;"/><path d="M337.7656,357.875 Q337.9219,357.6563 338.1094,357.5469 Q338.2969,357.4375 338.5156,357.4375 Q338.8906,357.4375 339.125,357.7031 Q339.3594,357.9531 339.3594,358.5625 L339.3594,360.0156 Q339.3594,360.625 339.125,360.8906 Q338.8906,361.1563 338.5156,361.1563 Q338.1719,361.1563 337.9688,360.9531 Q337.7656,360.7656 337.6563,360.25 Q337.6094,359.8906 337.4219,359.7031 Q337.0938,359.3281 336.4844,359.1094 Q335.875,358.8906 335.25,358.8906 Q334.4844,358.8906 333.8438,359.2188 Q333.2188,359.5469 332.7188,360.2969 Q332.2344,361.0469 332.2344,362.0781 L332.2344,363.1719 Q332.2344,364.4063 333.125,365.2344 Q334.0156,366.0469 335.6094,366.0469 Q336.5469,366.0469 337.2031,365.7969 Q337.5938,365.6406 338.0156,365.2031 Q338.2813,364.9375 338.4219,364.8594 Q338.5781,364.7813 338.7813,364.7813 Q339.1094,364.7813 339.3594,365.0469 Q339.625,365.2969 339.625,365.6406 Q339.625,365.9844 339.2813,366.3906 Q338.7813,366.9688 337.9844,367.2969 Q336.9063,367.75 335.6094,367.75 Q334.0938,367.75 332.8906,367.125 Q331.9063,366.625 331.2188,365.5625 Q330.5313,364.4844 330.5313,363.2031 L330.5313,362.0469 Q330.5313,360.7188 331.1406,359.5781 Q331.7656,358.4219 332.8594,357.8125 Q333.9531,357.1875 335.1875,357.1875 Q335.9219,357.1875 336.5625,357.3594 Q337.2188,357.5156 337.7656,357.875 Z " fill="#000000"/><text fill="#000000" font-family="sans-serif" font-size="14" lengthAdjust="spacing" textLength="85" x="349" y="367.7285">ClientHandler</text><line style="stroke:#181818;stroke-width:0.5;" x1="321" x2="436" y1="378" y2="378"/><line style="stroke:#181818;stroke-width:0.5;" x1="321" x2="436" y1="386" y2="386"/></g><!--MD5=[836540ada74138f303e5381b9e0e17f2]
reverse link INotifyPropertyChanged to GenericSensor--><g id="link_INotifyPropertyChanged_GenericSensor"><path codeLine="10" d="M315.5,75.7 C315.5,87.74 315.5,101.24 315.5,114.76 " fill="none" id="INotifyPropertyChanged-backto-GenericSensor" style="stroke:#181818;stroke-width:1.0;"/><polygon fill="none" points="308.5,75.29,315.5,55.29,322.5,75.29,308.5,75.29" style="stroke:#181818;stroke-width:1.0;"/></g><!--MD5=[c0dce8556f1d61d32e067580d1733323]
link GenericSensor to Guid--><g id="link_GenericSensor_Guid"><path codeLine="11" d="M284.14,286.23 C276.85,305.91 269.59,325.53 263.97,340.72 " fill="none" id="GenericSensor-to-Guid" style="stroke:#181818;stroke-width:1.0;"/><polygon fill="#181818" points="262.13,345.69,269.0166,338.6491,263.8731,341.0037,261.5185,335.8601,262.13,345.69" style="stroke:#181818;stroke-width:1.0;"/><text fill="#000000" font-family="sans-serif" font-size="13" lengthAdjust="spacing" textLength="10" x="253.0602" y="334.9507">Id</text></g><!--MD5=[a1d430bab3b7686195dfffc4223ae28c]
link GenericSensor to ClientHandler--><g id="link_GenericSensor_ClientHandler"><path codeLine="12" d="M347.37,286.23 C354.77,305.91 362.15,325.53 367.86,340.72 " fill="none" id="GenericSensor-to-ClientHandler" style="stroke:#181818;stroke-width:1.0;"/><polygon fill="#181818" points="369.73,345.69,370.289,335.857,367.9619,341.0131,362.8058,338.686,369.73,345.69" style="stroke:#181818;stroke-width:1.0;"/><text fill="#000000" font-family="sans-serif" font-size="13" lengthAdjust="spacing" textLength="77" x="280.6171" y="334.9507">ClientHandler</text></g><!--MD5=[515678f577dc57ffc4da43bbc301d1b3]
@startuml
abstract class GenericSensor {
    + Room : string <<get>>
    + Name : string <<get>>
    + Topic : string <<get>>
    + GenericSensor(id:Guid, room:string, type:string, name:string)
    + {abstract} HandleMessageReceived(sender:object, e:MqttApplicationMessageReceivedEventArgs) : void
    + {abstract} PublishStatus() : void
    +  <<event>> PropertyChanged : PropertyChangedEventHandler 
}
INotifyPropertyChanged <|- - GenericSensor
GenericSensor - -> "Id" Guid
GenericSensor - -> "ClientHandler" ClientHandler
@enduml

PlantUML version 1.2022.7(Mon Aug 22 19:01:30 CEST 2022)
(GPL source distribution)
Java Runtime: Java(TM) SE Runtime Environment
JVM: Java HotSpot(TM) 64-Bit Server VM
Default Encoding: Cp1252
Language: de
Country: DE
--></g></svg>