<?xml version="1.0" encoding="UTF-8" standalone="no"?><svg xmlns="http://www.w3.org/2000/svg" xmlns:xlink="http://www.w3.org/1999/xlink" contentStyleType="text/css" height="198px" preserveAspectRatio="none" style="width:121px;height:198px;background:#FFFFFF;" version="1.1" viewBox="0 0 121 198" width="121px" zoomAndPan="magnify"><defs/><g><!--MD5=[055ae584e8f48d8fc3c3de49aadf0637]
class Dashboard--><g id="elem_Dashboard"><rect codeLine="1" fill="#F1F1F1" height="76.3125" id="Dashboard" rx="2.5" ry="2.5" style="stroke:#181818;stroke-width:0.5;" width="106" x="7.5" y="115"/><ellipse cx="24.3" cy="136.3516" fill="#ADD1B2" rx="11" ry="11" style="stroke:#181818;stroke-width:1.0;"/><path d="M27.0656,132.2266 Q27.2219,132.0078 27.4094,131.8984 Q27.5969,131.7891 27.8156,131.7891 Q28.1906,131.7891 28.425,132.0547 Q28.6594,132.3047 28.6594,132.9141 L28.6594,134.3672 Q28.6594,134.9766 28.425,135.2422 Q28.1906,135.5078 27.8156,135.5078 Q27.4719,135.5078 27.2688,135.3047 Q27.0656,135.1172 26.9563,134.6016 Q26.9094,134.2422 26.7219,134.0547 Q26.3938,133.6797 25.7844,133.4609 Q25.175,133.2422 24.55,133.2422 Q23.7844,133.2422 23.1438,133.5703 Q22.5188,133.8984 22.0188,134.6484 Q21.5344,135.3984 21.5344,136.4297 L21.5344,137.5234 Q21.5344,138.7578 22.425,139.5859 Q23.3156,140.3984 24.9094,140.3984 Q25.8469,140.3984 26.5031,140.1484 Q26.8938,139.9922 27.3156,139.5547 Q27.5813,139.2891 27.7219,139.2109 Q27.8781,139.1328 28.0813,139.1328 Q28.4094,139.1328 28.6594,139.3984 Q28.925,139.6484 28.925,139.9922 Q28.925,140.3359 28.5813,140.7422 Q28.0813,141.3203 27.2844,141.6484 Q26.2063,142.1016 24.9094,142.1016 Q23.3938,142.1016 22.1906,141.4766 Q21.2063,140.9766 20.5188,139.9141 Q19.8313,138.8359 19.8313,137.5547 L19.8313,136.3984 Q19.8313,135.0703 20.4406,133.9297 Q21.0656,132.7734 22.1594,132.1641 Q23.2531,131.5391 24.4875,131.5391 Q25.2219,131.5391 25.8625,131.7109 Q26.5188,131.8672 27.0656,132.2266 Z " fill="#000000"/><text fill="#000000" font-family="sans-serif" font-size="12" font-style="italic" lengthAdjust="spacing" textLength="48" x="49.7" y="132.457">«partial»</text><text fill="#000000" font-family="sans-serif" font-size="14" lengthAdjust="spacing" textLength="70" x="38.7" y="149.627">Dashboard</text><line style="stroke:#181818;stroke-width:0.5;" x1="8.5" x2="112.5" y1="157.7031" y2="157.7031"/><line style="stroke:#181818;stroke-width:0.5;" x1="8.5" x2="112.5" y1="165.7031" y2="165.7031"/><ellipse cx="18.5" cy="180.0078" fill="#84BE84" rx="3" ry="3" style="stroke:#038048;stroke-width:1.0;"/><text fill="#000000" font-family="sans-serif" font-size="14" lengthAdjust="spacing" textLength="80" x="27.5" y="184.2363">Dashboard()</text></g><!--MD5=[4a32f1cef71656ed46b6dd061b81f15d]
class UserControl--><g id="elem_UserControl"><rect fill="#F1F1F1" height="48" id="UserControl" rx="2.5" ry="2.5" style="stroke:#181818;stroke-width:0.5;" width="107" x="7" y="7"/><ellipse cx="22" cy="23" fill="#ADD1B2" rx="11" ry="11" style="stroke:#181818;stroke-width:1.0;"/><path d="M24.7656,18.875 Q24.9219,18.6563 25.1094,18.5469 Q25.2969,18.4375 25.5156,18.4375 Q25.8906,18.4375 26.125,18.7031 Q26.3594,18.9531 26.3594,19.5625 L26.3594,21.0156 Q26.3594,21.625 26.125,21.8906 Q25.8906,22.1563 25.5156,22.1563 Q25.1719,22.1563 24.9688,21.9531 Q24.7656,21.7656 24.6563,21.25 Q24.6094,20.8906 24.4219,20.7031 Q24.0938,20.3281 23.4844,20.1094 Q22.875,19.8906 22.25,19.8906 Q21.4844,19.8906 20.8438,20.2188 Q20.2188,20.5469 19.7188,21.2969 Q19.2344,22.0469 19.2344,23.0781 L19.2344,24.1719 Q19.2344,25.4063 20.125,26.2344 Q21.0156,27.0469 22.6094,27.0469 Q23.5469,27.0469 24.2031,26.7969 Q24.5938,26.6406 25.0156,26.2031 Q25.2813,25.9375 25.4219,25.8594 Q25.5781,25.7813 25.7813,25.7813 Q26.1094,25.7813 26.3594,26.0469 Q26.625,26.2969 26.625,26.6406 Q26.625,26.9844 26.2813,27.3906 Q25.7813,27.9688 24.9844,28.2969 Q23.9063,28.75 22.6094,28.75 Q21.0938,28.75 19.8906,28.125 Q18.9063,27.625 18.2188,26.5625 Q17.5313,25.4844 17.5313,24.2031 L17.5313,23.0469 Q17.5313,21.7188 18.1406,20.5781 Q18.7656,19.4219 19.8594,18.8125 Q20.9531,18.1875 22.1875,18.1875 Q22.9219,18.1875 23.5625,18.3594 Q24.2188,18.5156 24.7656,18.875 Z " fill="#000000"/><text fill="#000000" font-family="sans-serif" font-size="14" lengthAdjust="spacing" textLength="75" x="36" y="28.7285">UserControl</text><line style="stroke:#181818;stroke-width:0.5;" x1="8" x2="113" y1="39" y2="39"/><line style="stroke:#181818;stroke-width:0.5;" x1="8" x2="113" y1="47" y2="47"/></g><!--MD5=[a34599bb66b817d6e96efdde586e4945]
reverse link UserControl to Dashboard--><g id="link_UserControl_Dashboard"><path codeLine="4" d="M60.5,75.34 C60.5,88.26 60.5,102.29 60.5,114.77 " fill="none" id="UserControl-backto-Dashboard" style="stroke:#181818;stroke-width:1.0;"/><polygon fill="none" points="53.5,75.14,60.5,55.14,67.5,75.14,53.5,75.14" style="stroke:#181818;stroke-width:1.0;"/></g><!--MD5=[fc10d8cf6ab79be0e521a9d88036677c]
@startuml
class Dashboard <<partial>> {
    + Dashboard()
}
UserControl <|- - Dashboard
@enduml

PlantUML version 1.2022.7(Mon Aug 22 19:01:30 CEST 2022)
(GPL source distribution)
Java Runtime: Java(TM) SE Runtime Environment
JVM: Java HotSpot(TM) 64-Bit Server VM
Default Encoding: Cp1252
Language: de
Country: DE
--></g></svg>