<?xml version="1.0" encoding="UTF-8" standalone="no"?><svg xmlns="http://www.w3.org/2000/svg" xmlns:xlink="http://www.w3.org/1999/xlink" contentStyleType="text/css" height="205px" preserveAspectRatio="none" style="width:609px;height:205px;background:#FFFFFF;" version="1.1" viewBox="0 0 609 205" width="609px" zoomAndPan="magnify"><defs/><g><!--MD5=[81fb5593fae74b5d8f37e7229522b813]
class BoolToOpenClosedConverter--><g id="elem_BoolToOpenClosedConverter"><rect codeLine="1" fill="#F1F1F1" height="83.2188" id="BoolToOpenClosedConverter" rx="2.5" ry="2.5" style="stroke:#181818;stroke-width:0.5;" width="595" x="7" y="115"/><ellipse cx="206.75" cy="131" fill="#ADD1B2" rx="11" ry="11" style="stroke:#181818;stroke-width:1.0;"/><path d="M209.5156,126.875 Q209.6719,126.6563 209.8594,126.5469 Q210.0469,126.4375 210.2656,126.4375 Q210.6406,126.4375 210.875,126.7031 Q211.1094,126.9531 211.1094,127.5625 L211.1094,129.0156 Q211.1094,129.625 210.875,129.8906 Q210.6406,130.1563 210.2656,130.1563 Q209.9219,130.1563 209.7188,129.9531 Q209.5156,129.7656 209.4063,129.25 Q209.3594,128.8906 209.1719,128.7031 Q208.8438,128.3281 208.2344,128.1094 Q207.625,127.8906 207,127.8906 Q206.2344,127.8906 205.5938,128.2188 Q204.9688,128.5469 204.4688,129.2969 Q203.9844,130.0469 203.9844,131.0781 L203.9844,132.1719 Q203.9844,133.4063 204.875,134.2344 Q205.7656,135.0469 207.3594,135.0469 Q208.2969,135.0469 208.9531,134.7969 Q209.3438,134.6406 209.7656,134.2031 Q210.0313,133.9375 210.1719,133.8594 Q210.3281,133.7813 210.5313,133.7813 Q210.8594,133.7813 211.1094,134.0469 Q211.375,134.2969 211.375,134.6406 Q211.375,134.9844 211.0313,135.3906 Q210.5313,135.9688 209.7344,136.2969 Q208.6563,136.75 207.3594,136.75 Q205.8438,136.75 204.6406,136.125 Q203.6563,135.625 202.9688,134.5625 Q202.2813,133.4844 202.2813,132.2031 L202.2813,131.0469 Q202.2813,129.7188 202.8906,128.5781 Q203.5156,127.4219 204.6094,126.8125 Q205.7031,126.1875 206.9375,126.1875 Q207.6719,126.1875 208.3125,126.3594 Q208.9688,126.5156 209.5156,126.875 Z " fill="#000000"/><text fill="#000000" font-family="sans-serif" font-size="14" lengthAdjust="spacing" textLength="187" x="227.25" y="136.7285">BoolToOpenClosedConverter</text><line style="stroke:#181818;stroke-width:0.5;" x1="8" x2="601" y1="147" y2="147"/><line style="stroke:#181818;stroke-width:0.5;" x1="8" x2="601" y1="155" y2="155"/><ellipse cx="18" cy="169.3047" fill="#84BE84" rx="3" ry="3" style="stroke:#038048;stroke-width:1.0;"/><text fill="#000000" font-family="sans-serif" font-size="14" lengthAdjust="spacing" textLength="538" x="27" y="173.5332">Convert(value:object, targetType:Type, parameter:object, culture:CultureInfo) : object</text><ellipse cx="18" cy="186.9141" fill="#84BE84" rx="3" ry="3" style="stroke:#038048;stroke-width:1.0;"/><text fill="#000000" font-family="sans-serif" font-size="14" lengthAdjust="spacing" textLength="569" x="27" y="191.1426">ConvertBack(value:object, targetType:Type, parameter:object, culture:CultureInfo) : object</text></g><!--MD5=[0466482292fe990ff730323dab7dddac]
class IValueConverter--><g id="elem_IValueConverter"><rect fill="#F1F1F1" height="48" id="IValueConverter" rx="2.5" ry="2.5" style="stroke:#181818;stroke-width:0.5;" width="134" x="237.5" y="7"/><ellipse cx="252.5" cy="23" fill="#ADD1B2" rx="11" ry="11" style="stroke:#181818;stroke-width:1.0;"/><path d="M255.2656,18.875 Q255.4219,18.6563 255.6094,18.5469 Q255.7969,18.4375 256.0156,18.4375 Q256.3906,18.4375 256.625,18.7031 Q256.8594,18.9531 256.8594,19.5625 L256.8594,21.0156 Q256.8594,21.625 256.625,21.8906 Q256.3906,22.1563 256.0156,22.1563 Q255.6719,22.1563 255.4688,21.9531 Q255.2656,21.7656 255.1563,21.25 Q255.1094,20.8906 254.9219,20.7031 Q254.5938,20.3281 253.9844,20.1094 Q253.375,19.8906 252.75,19.8906 Q251.9844,19.8906 251.3438,20.2188 Q250.7188,20.5469 250.2188,21.2969 Q249.7344,22.0469 249.7344,23.0781 L249.7344,24.1719 Q249.7344,25.4063 250.625,26.2344 Q251.5156,27.0469 253.1094,27.0469 Q254.0469,27.0469 254.7031,26.7969 Q255.0938,26.6406 255.5156,26.2031 Q255.7813,25.9375 255.9219,25.8594 Q256.0781,25.7813 256.2813,25.7813 Q256.6094,25.7813 256.8594,26.0469 Q257.125,26.2969 257.125,26.6406 Q257.125,26.9844 256.7813,27.3906 Q256.2813,27.9688 255.4844,28.2969 Q254.4063,28.75 253.1094,28.75 Q251.5938,28.75 250.3906,28.125 Q249.4063,27.625 248.7188,26.5625 Q248.0313,25.4844 248.0313,24.2031 L248.0313,23.0469 Q248.0313,21.7188 248.6406,20.5781 Q249.2656,19.4219 250.3594,18.8125 Q251.4531,18.1875 252.6875,18.1875 Q253.4219,18.1875 254.0625,18.3594 Q254.7188,18.5156 255.2656,18.875 Z " fill="#000000"/><text fill="#000000" font-family="sans-serif" font-size="14" lengthAdjust="spacing" textLength="102" x="266.5" y="28.7285">IValueConverter</text><line style="stroke:#181818;stroke-width:0.5;" x1="238.5" x2="370.5" y1="39" y2="39"/><line style="stroke:#181818;stroke-width:0.5;" x1="238.5" x2="370.5" y1="47" y2="47"/></g><!--MD5=[07048b59d1e7d86e79703630daa14c72]
reverse link IValueConverter to BoolToOpenClosedConverter--><g id="link_IValueConverter_BoolToOpenClosedConverter"><path codeLine="5" d="M304.5,75.31 C304.5,88.16 304.5,102.19 304.5,114.87 " fill="none" id="IValueConverter-backto-BoolToOpenClosedConverter" style="stroke:#181818;stroke-width:1.0;"/><polygon fill="none" points="297.5,75.23,304.5,55.23,311.5,75.23,297.5,75.23" style="stroke:#181818;stroke-width:1.0;"/></g><!--MD5=[90686d2cac3b00edbf13947388e61330]
@startuml
class BoolToOpenClosedConverter {
    + Convert(value:object, targetType:Type, parameter:object, culture:CultureInfo) : object
    + ConvertBack(value:object, targetType:Type, parameter:object, culture:CultureInfo) : object
}
IValueConverter <|- - BoolToOpenClosedConverter
@enduml

PlantUML version 1.2022.7(Mon Aug 22 19:01:30 CEST 2022)
(GPL source distribution)
Java Runtime: Java(TM) SE Runtime Environment
JVM: Java HotSpot(TM) 64-Bit Server VM
Default Encoding: Cp1252
Language: de
Country: DE
--></g></svg>