<?xml version="1.0" encoding="UTF-8" standalone="no"?><svg xmlns="http://www.w3.org/2000/svg" xmlns:xlink="http://www.w3.org/1999/xlink" contentStyleType="text/css" height="180px" preserveAspectRatio="none" style="width:115px;height:180px;background:#FFFFFF;" version="1.1" viewBox="0 0 115 180" width="115px" zoomAndPan="magnify"><defs/><g><!--MD5=[335f4d9be48430461c68bf6d6fdba145]
class App--><g id="elem_App"><rect codeLine="1" fill="#F1F1F1" height="58.7031" id="App" rx="2.5" ry="2.5" style="stroke:#181818;stroke-width:0.5;" width="76" x="19.5" y="115"/><ellipse cx="34.5" cy="136.3516" fill="#ADD1B2" rx="11" ry="11" style="stroke:#181818;stroke-width:1.0;"/><path d="M37.2656,132.2266 Q37.4219,132.0078 37.6094,131.8984 Q37.7969,131.7891 38.0156,131.7891 Q38.3906,131.7891 38.625,132.0547 Q38.8594,132.3047 38.8594,132.9141 L38.8594,134.3672 Q38.8594,134.9766 38.625,135.2422 Q38.3906,135.5078 38.0156,135.5078 Q37.6719,135.5078 37.4688,135.3047 Q37.2656,135.1172 37.1563,134.6016 Q37.1094,134.2422 36.9219,134.0547 Q36.5938,133.6797 35.9844,133.4609 Q35.375,133.2422 34.75,133.2422 Q33.9844,133.2422 33.3438,133.5703 Q32.7188,133.8984 32.2188,134.6484 Q31.7344,135.3984 31.7344,136.4297 L31.7344,137.5234 Q31.7344,138.7578 32.625,139.5859 Q33.5156,140.3984 35.1094,140.3984 Q36.0469,140.3984 36.7031,140.1484 Q37.0938,139.9922 37.5156,139.5547 Q37.7813,139.2891 37.9219,139.2109 Q38.0781,139.1328 38.2813,139.1328 Q38.6094,139.1328 38.8594,139.3984 Q39.125,139.6484 39.125,139.9922 Q39.125,140.3359 38.7813,140.7422 Q38.2813,141.3203 37.4844,141.6484 Q36.4063,142.1016 35.1094,142.1016 Q33.5938,142.1016 32.3906,141.4766 Q31.4063,140.9766 30.7188,139.9141 Q30.0313,138.8359 30.0313,137.5547 L30.0313,136.3984 Q30.0313,135.0703 30.6406,133.9297 Q31.2656,132.7734 32.3594,132.1641 Q33.4531,131.5391 34.6875,131.5391 Q35.4219,131.5391 36.0625,131.7109 Q36.7188,131.8672 37.2656,132.2266 Z " fill="#000000"/><text fill="#000000" font-family="sans-serif" font-size="12" font-style="italic" lengthAdjust="spacing" textLength="48" x="46.5" y="132.457">«partial»</text><text fill="#000000" font-family="sans-serif" font-size="14" lengthAdjust="spacing" textLength="25" x="58" y="149.627">App</text><line style="stroke:#181818;stroke-width:0.5;" x1="20.5" x2="94.5" y1="157.7031" y2="157.7031"/><line style="stroke:#181818;stroke-width:0.5;" x1="20.5" x2="94.5" y1="165.7031" y2="165.7031"/></g><!--MD5=[0b4e4b4980470ea387cc45de9bd14b5b]
class Application--><g id="elem_Application"><rect fill="#F1F1F1" height="48" id="Application" rx="2.5" ry="2.5" style="stroke:#181818;stroke-width:0.5;" width="101" x="7" y="7"/><ellipse cx="22" cy="23" fill="#ADD1B2" rx="11" ry="11" style="stroke:#181818;stroke-width:1.0;"/><path d="M24.7656,18.875 Q24.9219,18.6563 25.1094,18.5469 Q25.2969,18.4375 25.5156,18.4375 Q25.8906,18.4375 26.125,18.7031 Q26.3594,18.9531 26.3594,19.5625 L26.3594,21.0156 Q26.3594,21.625 26.125,21.8906 Q25.8906,22.1563 25.5156,22.1563 Q25.1719,22.1563 24.9688,21.9531 Q24.7656,21.7656 24.6563,21.25 Q24.6094,20.8906 24.4219,20.7031 Q24.0938,20.3281 23.4844,20.1094 Q22.875,19.8906 22.25,19.8906 Q21.4844,19.8906 20.8438,20.2188 Q20.2188,20.5469 19.7188,21.2969 Q19.2344,22.0469 19.2344,23.0781 L19.2344,24.1719 Q19.2344,25.4063 20.125,26.2344 Q21.0156,27.0469 22.6094,27.0469 Q23.5469,27.0469 24.2031,26.7969 Q24.5938,26.6406 25.0156,26.2031 Q25.2813,25.9375 25.4219,25.8594 Q25.5781,25.7813 25.7813,25.7813 Q26.1094,25.7813 26.3594,26.0469 Q26.625,26.2969 26.625,26.6406 Q26.625,26.9844 26.2813,27.3906 Q25.7813,27.9688 24.9844,28.2969 Q23.9063,28.75 22.6094,28.75 Q21.0938,28.75 19.8906,28.125 Q18.9063,27.625 18.2188,26.5625 Q17.5313,25.4844 17.5313,24.2031 L17.5313,23.0469 Q17.5313,21.7188 18.1406,20.5781 Q18.7656,19.4219 19.8594,18.8125 Q20.9531,18.1875 22.1875,18.1875 Q22.9219,18.1875 23.5625,18.3594 Q24.2188,18.5156 24.7656,18.875 Z " fill="#000000"/><text fill="#000000" font-family="sans-serif" font-size="14" lengthAdjust="spacing" textLength="69" x="36" y="28.7285">Application</text><line style="stroke:#181818;stroke-width:0.5;" x1="8" x2="107" y1="39" y2="39"/><line style="stroke:#181818;stroke-width:0.5;" x1="8" x2="107" y1="47" y2="47"/></g><!--MD5=[356e9c1a442df0b7daa2eabe011cda3f]
reverse link Application to App--><g id="link_Application_App"><path codeLine="3" d="M57.5,75.3 C57.5,88.58 57.5,102.84 57.5,114.88 " fill="none" id="Application-backto-App" style="stroke:#181818;stroke-width:1.0;"/><polygon fill="none" points="50.5,75.1,57.5,55.1,64.5,75.1,50.5,75.1" style="stroke:#181818;stroke-width:1.0;"/></g><!--MD5=[ccbb7d081e1b64d4d9aa26862ae22e15]
@startuml
class App <<partial>> {
}
Application <|- - App
@enduml

PlantUML version 1.2022.7(Mon Aug 22 19:01:30 CEST 2022)
(GPL source distribution)
Java Runtime: Java(TM) SE Runtime Environment
JVM: Java HotSpot(TM) 64-Bit Server VM
Default Encoding: Cp1252
Language: de
Country: DE
--></g></svg>