<?xml version="1.0" encoding="UTF-8" standalone="no"?><svg xmlns="http://www.w3.org/2000/svg" xmlns:xlink="http://www.w3.org/1999/xlink" contentStyleType="text/css" height="240px" preserveAspectRatio="none" style="width:703px;height:240px;background:#FFFFFF;" version="1.1" viewBox="0 0 703 240" width="703px" zoomAndPan="magnify"><defs/><g><!--MD5=[91917290528d35054d59fb04a362fda6]
class WindowSensor--><g id="elem_WindowSensor"><rect codeLine="1" fill="#F1F1F1" height="118.4375" id="WindowSensor" rx="2.5" ry="2.5" style="stroke:#181818;stroke-width:0.5;" width="689" x="7" y="115"/><ellipse cx="300.25" cy="131" fill="#ADD1B2" rx="11" ry="11" style="stroke:#181818;stroke-width:1.0;"/><path d="M303.0156,126.875 Q303.1719,126.6563 303.3594,126.5469 Q303.5469,126.4375 303.7656,126.4375 Q304.1406,126.4375 304.375,126.7031 Q304.6094,126.9531 304.6094,127.5625 L304.6094,129.0156 Q304.6094,129.625 304.375,129.8906 Q304.1406,130.1563 303.7656,130.1563 Q303.4219,130.1563 303.2188,129.9531 Q303.0156,129.7656 302.9063,129.25 Q302.8594,128.8906 302.6719,128.7031 Q302.3438,128.3281 301.7344,128.1094 Q301.125,127.8906 300.5,127.8906 Q299.7344,127.8906 299.0938,128.2188 Q298.4688,128.5469 297.9688,129.2969 Q297.4844,130.0469 297.4844,131.0781 L297.4844,132.1719 Q297.4844,133.4063 298.375,134.2344 Q299.2656,135.0469 300.8594,135.0469 Q301.7969,135.0469 302.4531,134.7969 Q302.8438,134.6406 303.2656,134.2031 Q303.5313,133.9375 303.6719,133.8594 Q303.8281,133.7813 304.0313,133.7813 Q304.3594,133.7813 304.6094,134.0469 Q304.875,134.2969 304.875,134.6406 Q304.875,134.9844 304.5313,135.3906 Q304.0313,135.9688 303.2344,136.2969 Q302.1563,136.75 300.8594,136.75 Q299.3438,136.75 298.1406,136.125 Q297.1563,135.625 296.4688,134.5625 Q295.7813,133.4844 295.7813,132.2031 L295.7813,131.0469 Q295.7813,129.7188 296.3906,128.5781 Q297.0156,127.4219 298.1094,126.8125 Q299.2031,126.1875 300.4375,126.1875 Q301.1719,126.1875 301.8125,126.3594 Q302.4688,126.5156 303.0156,126.875 Z " fill="#000000"/><text fill="#000000" font-family="sans-serif" font-size="14" lengthAdjust="spacing" textLength="94" x="320.75" y="136.7285">WindowSensor</text><line style="stroke:#181818;stroke-width:0.5;" x1="8" x2="695" y1="147" y2="147"/><ellipse cx="18" cy="161.3047" fill="none" rx="3" ry="3" style="stroke:#038048;stroke-width:1.0;"/><text fill="#000000" font-family="sans-serif" font-size="14" lengthAdjust="spacing" textLength="163" x="27" y="165.5332">IsOpen : bool «get» «set»</text><line style="stroke:#181818;stroke-width:0.5;" x1="8" x2="695" y1="172.6094" y2="172.6094"/><ellipse cx="18" cy="186.9141" fill="#84BE84" rx="3" ry="3" style="stroke:#038048;stroke-width:1.0;"/><text fill="#000000" font-family="sans-serif" font-size="14" lengthAdjust="spacing" textLength="310" x="27" y="191.1426">WindowSensor(id:Guid, room:string, name:string)</text><ellipse cx="18" cy="204.5234" fill="#84BE84" rx="3" ry="3" style="stroke:#038048;stroke-width:1.0;"/><text fill="#000000" font-family="sans-serif" font-size="14" lengthAdjust="spacing" textLength="206" x="27" y="208.752">«override» PublishStatus() : void</text><ellipse cx="18" cy="222.1328" fill="#84BE84" rx="3" ry="3" style="stroke:#038048;stroke-width:1.0;"/><text fill="#000000" font-family="sans-serif" font-size="14" lengthAdjust="spacing" textLength="663" x="27" y="226.3613">«override» HandleMessageReceived(sender:object, e:MqttApplicationMessageReceivedEventArgs) : void</text></g><!--MD5=[7ec303b9a1b07012d304d0b0710773c0]
class GenericSensor--><g id="elem_GenericSensor"><rect fill="#F1F1F1" height="48" id="GenericSensor" rx="2.5" ry="2.5" style="stroke:#181818;stroke-width:0.5;" width="127" x="288" y="7"/><ellipse cx="303" cy="23" fill="#ADD1B2" rx="11" ry="11" style="stroke:#181818;stroke-width:1.0;"/><path d="M305.7656,18.875 Q305.9219,18.6563 306.1094,18.5469 Q306.2969,18.4375 306.5156,18.4375 Q306.8906,18.4375 307.125,18.7031 Q307.3594,18.9531 307.3594,19.5625 L307.3594,21.0156 Q307.3594,21.625 307.125,21.8906 Q306.8906,22.1563 306.5156,22.1563 Q306.1719,22.1563 305.9688,21.9531 Q305.7656,21.7656 305.6563,21.25 Q305.6094,20.8906 305.4219,20.7031 Q305.0938,20.3281 304.4844,20.1094 Q303.875,19.8906 303.25,19.8906 Q302.4844,19.8906 301.8438,20.2188 Q301.2188,20.5469 300.7188,21.2969 Q300.2344,22.0469 300.2344,23.0781 L300.2344,24.1719 Q300.2344,25.4063 301.125,26.2344 Q302.0156,27.0469 303.6094,27.0469 Q304.5469,27.0469 305.2031,26.7969 Q305.5938,26.6406 306.0156,26.2031 Q306.2813,25.9375 306.4219,25.8594 Q306.5781,25.7813 306.7813,25.7813 Q307.1094,25.7813 307.3594,26.0469 Q307.625,26.2969 307.625,26.6406 Q307.625,26.9844 307.2813,27.3906 Q306.7813,27.9688 305.9844,28.2969 Q304.9063,28.75 303.6094,28.75 Q302.0938,28.75 300.8906,28.125 Q299.9063,27.625 299.2188,26.5625 Q298.5313,25.4844 298.5313,24.2031 L298.5313,23.0469 Q298.5313,21.7188 299.1406,20.5781 Q299.7656,19.4219 300.8594,18.8125 Q301.9531,18.1875 303.1875,18.1875 Q303.9219,18.1875 304.5625,18.3594 Q305.2188,18.5156 305.7656,18.875 Z " fill="#000000"/><text fill="#000000" font-family="sans-serif" font-size="14" lengthAdjust="spacing" textLength="95" x="317" y="28.7285">GenericSensor</text><line style="stroke:#181818;stroke-width:0.5;" x1="289" x2="414" y1="39" y2="39"/><line style="stroke:#181818;stroke-width:0.5;" x1="289" x2="414" y1="47" y2="47"/></g><!--MD5=[a61615165f53b96e5208764d8ad79923]
reverse link GenericSensor to WindowSensor--><g id="link_GenericSensor_WindowSensor"><path codeLine="7" d="M351.5,75.33 C351.5,87.86 351.5,101.73 351.5,114.99 " fill="none" id="GenericSensor-backto-WindowSensor" style="stroke:#181818;stroke-width:1.0;"/><polygon fill="none" points="344.5,75.28,351.5,55.28,358.5,75.28,344.5,75.28" style="stroke:#181818;stroke-width:1.0;"/></g><!--MD5=[b623f89fbc179c96ba02c2400c4866bd]
@startuml
class WindowSensor {
    + IsOpen : bool <<get>> <<set>>
    + WindowSensor(id:Guid, room:string, name:string)
    + <<override>> PublishStatus() : void
    + <<override>> HandleMessageReceived(sender:object, e:MqttApplicationMessageReceivedEventArgs) : void
}
GenericSensor <|- - WindowSensor
@enduml

PlantUML version 1.2022.7(Mon Aug 22 19:01:30 CEST 2022)
(GPL source distribution)
Java Runtime: Java(TM) SE Runtime Environment
JVM: Java HotSpot(TM) 64-Bit Server VM
Default Encoding: Cp1252
Language: de
Country: DE
--></g></svg>