<?xml version="1.0" encoding="UTF-8" standalone="no"?><svg xmlns="http://www.w3.org/2000/svg" xmlns:xlink="http://www.w3.org/1999/xlink" contentStyleType="text/css" height="187px" preserveAspectRatio="none" style="width:416px;height:187px;background:#FFFFFF;" version="1.1" viewBox="0 0 416 187" width="416px" zoomAndPan="magnify"><defs/><g><!--MD5=[65c4506c46c60cfa938cb2b4b00e1c7d]
class Bindable--><g id="elem_Bindable"><rect codeLine="1" fill="#F1F1F1" height="65.6094" id="Bindable" rx="2.5" ry="2.5" style="stroke:#181818;stroke-width:0.5;" width="402" x="7" y="115"/><ellipse cx="176.25" cy="131" fill="#A9DCDF" rx="11" ry="11" style="stroke:#181818;stroke-width:1.0;"/><path d="M178.4375,132.7656 L174.2969,132.7656 L173.875,133.7969 L174.2969,133.7969 Q174.9063,133.7969 175.1719,134.0313 Q175.4375,134.2656 175.4375,134.6563 Q175.4375,135.0313 175.1719,135.2656 Q174.9063,135.5 174.2969,135.5 L172,135.5 Q171.3906,135.5 171.1406,135.2656 Q170.875,135.0313 170.875,134.6406 Q170.875,134.2656 171.1563,134.0313 Q171.4219,133.7813 172.0469,133.7969 L174.7188,127.1406 L173.6094,127.1406 Q173,127.1406 172.7344,126.9063 Q172.4688,126.6719 172.4688,126.2813 Q172.4688,125.9063 172.7344,125.6719 Q173,125.4375 173.6094,125.4375 L177.2813,125.4375 L180.6719,133.7969 Q181.2656,133.7969 181.4531,133.9375 Q181.8438,134.2031 181.8438,134.6563 Q181.8438,135.0313 181.5781,135.2656 Q181.3281,135.5 180.7188,135.5 L178.4219,135.5 Q177.8125,135.5 177.5469,135.2656 Q177.2813,135.0313 177.2813,134.6406 Q177.2813,134.2656 177.5469,134.0313 Q177.8125,133.7969 178.4219,133.7969 L178.8438,133.7969 L178.4375,132.7656 Z M177.7188,131.0625 L176.3594,127.6875 L174.9844,131.0625 L177.7188,131.0625 Z " fill="#000000"/><text fill="#000000" font-family="sans-serif" font-size="14" font-style="italic" lengthAdjust="spacing" textLength="55" x="196.75" y="136.7285">Bindable</text><line style="stroke:#181818;stroke-width:0.5;" x1="8" x2="408" y1="147" y2="147"/><ellipse cx="18" cy="161.3047" fill="none" rx="3" ry="3" style="stroke:#038048;stroke-width:1.0;"/><text fill="#000000" font-family="sans-serif" font-size="14" lengthAdjust="spacing" textLength="376" x="27" y="165.5332">«event» PropertyChanged : PropertyChangedEventHandler</text><line style="stroke:#181818;stroke-width:0.5;" x1="8" x2="408" y1="172.6094" y2="172.6094"/></g><!--MD5=[638732a4d9fb0c1bc21919cc2182dbf5]
class INotifyPropertyChanged--><g id="elem_INotifyPropertyChanged"><rect fill="#F1F1F1" height="48" id="INotifyPropertyChanged" rx="2.5" ry="2.5" style="stroke:#181818;stroke-width:0.5;" width="182" x="117" y="7"/><ellipse cx="132" cy="23" fill="#ADD1B2" rx="11" ry="11" style="stroke:#181818;stroke-width:1.0;"/><path d="M134.7656,18.875 Q134.9219,18.6563 135.1094,18.5469 Q135.2969,18.4375 135.5156,18.4375 Q135.8906,18.4375 136.125,18.7031 Q136.3594,18.9531 136.3594,19.5625 L136.3594,21.0156 Q136.3594,21.625 136.125,21.8906 Q135.8906,22.1563 135.5156,22.1563 Q135.1719,22.1563 134.9688,21.9531 Q134.7656,21.7656 134.6563,21.25 Q134.6094,20.8906 134.4219,20.7031 Q134.0938,20.3281 133.4844,20.1094 Q132.875,19.8906 132.25,19.8906 Q131.4844,19.8906 130.8438,20.2188 Q130.2188,20.5469 129.7188,21.2969 Q129.2344,22.0469 129.2344,23.0781 L129.2344,24.1719 Q129.2344,25.4063 130.125,26.2344 Q131.0156,27.0469 132.6094,27.0469 Q133.5469,27.0469 134.2031,26.7969 Q134.5938,26.6406 135.0156,26.2031 Q135.2813,25.9375 135.4219,25.8594 Q135.5781,25.7813 135.7813,25.7813 Q136.1094,25.7813 136.3594,26.0469 Q136.625,26.2969 136.625,26.6406 Q136.625,26.9844 136.2813,27.3906 Q135.7813,27.9688 134.9844,28.2969 Q133.9063,28.75 132.6094,28.75 Q131.0938,28.75 129.8906,28.125 Q128.9063,27.625 128.2188,26.5625 Q127.5313,25.4844 127.5313,24.2031 L127.5313,23.0469 Q127.5313,21.7188 128.1406,20.5781 Q128.7656,19.4219 129.8594,18.8125 Q130.9531,18.1875 132.1875,18.1875 Q132.9219,18.1875 133.5625,18.3594 Q134.2188,18.5156 134.7656,18.875 Z " fill="#000000"/><text fill="#000000" font-family="sans-serif" font-size="14" lengthAdjust="spacing" textLength="150" x="146" y="28.7285">INotifyPropertyChanged</text><line style="stroke:#181818;stroke-width:0.5;" x1="118" x2="298" y1="39" y2="39"/><line style="stroke:#181818;stroke-width:0.5;" x1="118" x2="298" y1="47" y2="47"/></g><!--MD5=[0618bc2607d28fbb369312bd91e0d5c1]
reverse link INotifyPropertyChanged to Bindable--><g id="link_INotifyPropertyChanged_Bindable"><path codeLine="4" d="M208,75.62 C208,88.56 208,102.51 208,114.61 " fill="none" id="INotifyPropertyChanged-backto-Bindable" style="stroke:#181818;stroke-width:1.0;"/><polygon fill="none" points="201,75.27,208,55.27,215,75.27,201,75.27" style="stroke:#181818;stroke-width:1.0;"/></g><!--MD5=[0748f306830c082e7ba54048b9227836]
@startuml
abstract class Bindable {
    +  <<event>> PropertyChanged : PropertyChangedEventHandler 
}
INotifyPropertyChanged <|- - Bindable
@enduml

PlantUML version 1.2022.7(Mon Aug 22 19:01:30 CEST 2022)
(GPL source distribution)
Java Runtime: Java(TM) SE Runtime Environment
JVM: Java HotSpot(TM) 64-Bit Server VM
Default Encoding: Cp1252
Language: de
Country: DE
--></g></svg>