<?xml version="1.0" encoding="UTF-8" standalone="no"?><svg xmlns="http://www.w3.org/2000/svg" xmlns:xlink="http://www.w3.org/1999/xlink" contentStyleType="text/css" height="240px" preserveAspectRatio="none" style="width:637px;height:240px;background:#FFFFFF;" version="1.1" viewBox="0 0 637 240" width="637px" zoomAndPan="magnify"><defs/><g><!--MD5=[5011627591ee4f7a3d58490c0e7112ca]
class ClientHandler--><g id="elem_ClientHandler"><rect codeLine="1" fill="#F1F1F1" height="118.4375" id="ClientHandler" rx="2.5" ry="2.5" style="stroke:#181818;stroke-width:0.5;" width="623" x="7" y="7"/><ellipse cx="271.75" cy="23" fill="#ADD1B2" rx="11" ry="11" style="stroke:#181818;stroke-width:1.0;"/><path d="M274.5156,18.875 Q274.6719,18.6563 274.8594,18.5469 Q275.0469,18.4375 275.2656,18.4375 Q275.6406,18.4375 275.875,18.7031 Q276.1094,18.9531 276.1094,19.5625 L276.1094,21.0156 Q276.1094,21.625 275.875,21.8906 Q275.6406,22.1563 275.2656,22.1563 Q274.9219,22.1563 274.7188,21.9531 Q274.5156,21.7656 274.4063,21.25 Q274.3594,20.8906 274.1719,20.7031 Q273.8438,20.3281 273.2344,20.1094 Q272.625,19.8906 272,19.8906 Q271.2344,19.8906 270.5938,20.2188 Q269.9688,20.5469 269.4688,21.2969 Q268.9844,22.0469 268.9844,23.0781 L268.9844,24.1719 Q268.9844,25.4063 269.875,26.2344 Q270.7656,27.0469 272.3594,27.0469 Q273.2969,27.0469 273.9531,26.7969 Q274.3438,26.6406 274.7656,26.2031 Q275.0313,25.9375 275.1719,25.8594 Q275.3281,25.7813 275.5313,25.7813 Q275.8594,25.7813 276.1094,26.0469 Q276.375,26.2969 276.375,26.6406 Q276.375,26.9844 276.0313,27.3906 Q275.5313,27.9688 274.7344,28.2969 Q273.6563,28.75 272.3594,28.75 Q270.8438,28.75 269.6406,28.125 Q268.6563,27.625 267.9688,26.5625 Q267.2813,25.4844 267.2813,24.2031 L267.2813,23.0469 Q267.2813,21.7188 267.8906,20.5781 Q268.5156,19.4219 269.6094,18.8125 Q270.7031,18.1875 271.9375,18.1875 Q272.6719,18.1875 273.3125,18.3594 Q273.9688,18.5156 274.5156,18.875 Z " fill="#000000"/><text fill="#000000" font-family="sans-serif" font-size="14" lengthAdjust="spacing" textLength="85" x="292.25" y="28.7285">ClientHandler</text><line style="stroke:#181818;stroke-width:0.5;" x1="8" x2="629" y1="39" y2="39"/><ellipse cx="18" cy="53.3047" fill="none" rx="3" ry="3" style="stroke:#038048;stroke-width:1.0;"/><text fill="#000000" font-family="sans-serif" font-size="14" lengthAdjust="spacing" textLength="597" x="27" y="57.5332">«event» MessageReceivedEvent : EventHandler&lt;MqttApplicationMessageReceivedEventArgs&gt;</text><line style="stroke:#181818;stroke-width:0.5;" x1="8" x2="629" y1="64.6094" y2="64.6094"/><ellipse cx="18" cy="78.9141" fill="#84BE84" rx="3" ry="3" style="stroke:#038048;stroke-width:1.0;"/><text fill="#000000" font-family="sans-serif" font-size="14" lengthAdjust="spacing" textLength="163" x="27" y="83.1426">«async» Connect() : Task</text><ellipse cx="18" cy="96.5234" fill="#84BE84" rx="3" ry="3" style="stroke:#038048;stroke-width:1.0;"/><text fill="#000000" font-family="sans-serif" font-size="14" lengthAdjust="spacing" textLength="242" x="27" y="100.752">«async» Subscribe(topic:string) : Task</text><ellipse cx="18" cy="114.1328" fill="#84BE84" rx="3" ry="3" style="stroke:#038048;stroke-width:1.0;"/><text fill="#000000" font-family="sans-serif" font-size="14" lengthAdjust="spacing" textLength="329" x="27" y="118.3613">«async» Publish(topic:string, message:string) : Task</text></g><!--MD5=[9d719f668b601c49116cfcbb215214b3]
class IMqttClient--><g id="elem_IMqttClient"><rect fill="#F1F1F1" height="48" id="IMqttClient" rx="2.5" ry="2.5" style="stroke:#181818;stroke-width:0.5;" width="98" x="269.5" y="185"/><ellipse cx="284.5" cy="201" fill="#ADD1B2" rx="11" ry="11" style="stroke:#181818;stroke-width:1.0;"/><path d="M287.2656,196.875 Q287.4219,196.6563 287.6094,196.5469 Q287.7969,196.4375 288.0156,196.4375 Q288.3906,196.4375 288.625,196.7031 Q288.8594,196.9531 288.8594,197.5625 L288.8594,199.0156 Q288.8594,199.625 288.625,199.8906 Q288.3906,200.1563 288.0156,200.1563 Q287.6719,200.1563 287.4688,199.9531 Q287.2656,199.7656 287.1563,199.25 Q287.1094,198.8906 286.9219,198.7031 Q286.5938,198.3281 285.9844,198.1094 Q285.375,197.8906 284.75,197.8906 Q283.9844,197.8906 283.3438,198.2188 Q282.7188,198.5469 282.2188,199.2969 Q281.7344,200.0469 281.7344,201.0781 L281.7344,202.1719 Q281.7344,203.4063 282.625,204.2344 Q283.5156,205.0469 285.1094,205.0469 Q286.0469,205.0469 286.7031,204.7969 Q287.0938,204.6406 287.5156,204.2031 Q287.7813,203.9375 287.9219,203.8594 Q288.0781,203.7813 288.2813,203.7813 Q288.6094,203.7813 288.8594,204.0469 Q289.125,204.2969 289.125,204.6406 Q289.125,204.9844 288.7813,205.3906 Q288.2813,205.9688 287.4844,206.2969 Q286.4063,206.75 285.1094,206.75 Q283.5938,206.75 282.3906,206.125 Q281.4063,205.625 280.7188,204.5625 Q280.0313,203.4844 280.0313,202.2031 L280.0313,201.0469 Q280.0313,199.7188 280.6406,198.5781 Q281.2656,197.4219 282.3594,196.8125 Q283.4531,196.1875 284.6875,196.1875 Q285.4219,196.1875 286.0625,196.3594 Q286.7188,196.5156 287.2656,196.875 Z " fill="#000000"/><text fill="#000000" font-family="sans-serif" font-size="14" lengthAdjust="spacing" textLength="66" x="298.5" y="206.7285">IMqttClient</text><line style="stroke:#181818;stroke-width:0.5;" x1="270.5" x2="366.5" y1="217" y2="217"/><line style="stroke:#181818;stroke-width:0.5;" x1="270.5" x2="366.5" y1="225" y2="225"/></g><!--MD5=[0dfc682205fcab7f10a4bfbb854af367]
link ClientHandler to IMqttClient--><g id="link_ClientHandler_IMqttClient"><path codeLine="7" d="M318.5,125.16 C318.5,143.97 318.5,164 318.5,179.64 " fill="none" id="ClientHandler-to-IMqttClient" style="stroke:#181818;stroke-width:1.0;"/><polygon fill="#181818" points="318.5,184.77,322.5,175.77,318.5,179.77,314.5,175.77,318.5,184.77" style="stroke:#181818;stroke-width:1.0;"/><text fill="#000000" font-family="sans-serif" font-size="13" lengthAdjust="spacing" textLength="33" x="281.2719" y="174.0512">Client</text></g><!--MD5=[51853d28294ea6640eab6aeed0f28ed3]
@startuml
class ClientHandler {
    +  <<event>> MessageReceivedEvent : EventHandler<MqttApplicationMessageReceivedEventArgs> 
    + <<async>> Connect() : Task
    + <<async>> Subscribe(topic:string) : Task
    + <<async>> Publish(topic:string, message:string) : Task
}
ClientHandler - -> "Client" IMqttClient
@enduml

PlantUML version 1.2022.7(Mon Aug 22 19:01:30 CEST 2022)
(GPL source distribution)
Java Runtime: Java(TM) SE Runtime Environment
JVM: Java HotSpot(TM) 64-Bit Server VM
Default Encoding: Cp1252
Language: de
Country: DE
--></g></svg>