<?xml version="1.0" encoding="UTF-8" standalone="no"?><svg xmlns="http://www.w3.org/2000/svg" xmlns:xlink="http://www.w3.org/1999/xlink" contentStyleType="text/css" height="198px" preserveAspectRatio="none" style="width:383px;height:198px;background:#FFFFFF;" version="1.1" viewBox="0 0 383 198" width="383px" zoomAndPan="magnify"><defs/><g><!--MD5=[29bde5fc07469dad6e7c47043cad0da4]
class AddSensorDialog--><g id="elem_AddSensorDialog"><rect codeLine="1" fill="#F1F1F1" height="76.3125" id="AddSensorDialog" rx="2.5" ry="2.5" style="stroke:#181818;stroke-width:0.5;" width="369" x="7" y="115"/><ellipse cx="132.25" cy="136.3516" fill="#ADD1B2" rx="11" ry="11" style="stroke:#181818;stroke-width:1.0;"/><path d="M135.0156,132.2266 Q135.1719,132.0078 135.3594,131.8984 Q135.5469,131.7891 135.7656,131.7891 Q136.1406,131.7891 136.375,132.0547 Q136.6094,132.3047 136.6094,132.9141 L136.6094,134.3672 Q136.6094,134.9766 136.375,135.2422 Q136.1406,135.5078 135.7656,135.5078 Q135.4219,135.5078 135.2188,135.3047 Q135.0156,135.1172 134.9063,134.6016 Q134.8594,134.2422 134.6719,134.0547 Q134.3438,133.6797 133.7344,133.4609 Q133.125,133.2422 132.5,133.2422 Q131.7344,133.2422 131.0938,133.5703 Q130.4688,133.8984 129.9688,134.6484 Q129.4844,135.3984 129.4844,136.4297 L129.4844,137.5234 Q129.4844,138.7578 130.375,139.5859 Q131.2656,140.3984 132.8594,140.3984 Q133.7969,140.3984 134.4531,140.1484 Q134.8438,139.9922 135.2656,139.5547 Q135.5313,139.2891 135.6719,139.2109 Q135.8281,139.1328 136.0313,139.1328 Q136.3594,139.1328 136.6094,139.3984 Q136.875,139.6484 136.875,139.9922 Q136.875,140.3359 136.5313,140.7422 Q136.0313,141.3203 135.2344,141.6484 Q134.1563,142.1016 132.8594,142.1016 Q131.3438,142.1016 130.1406,141.4766 Q129.1563,140.9766 128.4688,139.9141 Q127.7813,138.8359 127.7813,137.5547 L127.7813,136.3984 Q127.7813,135.0703 128.3906,133.9297 Q129.0156,132.7734 130.1094,132.1641 Q131.2031,131.5391 132.4375,131.5391 Q133.1719,131.5391 133.8125,131.7109 Q134.4688,131.8672 135.0156,132.2266 Z " fill="#000000"/><text fill="#000000" font-family="sans-serif" font-size="12" font-style="italic" lengthAdjust="spacing" textLength="48" x="183.75" y="132.457">«partial»</text><text fill="#000000" font-family="sans-serif" font-size="14" lengthAdjust="spacing" textLength="110" x="152.75" y="149.627">AddSensorDialog</text><line style="stroke:#181818;stroke-width:0.5;" x1="8" x2="375" y1="157.7031" y2="157.7031"/><line style="stroke:#181818;stroke-width:0.5;" x1="8" x2="375" y1="165.7031" y2="165.7031"/><ellipse cx="18" cy="180.0078" fill="#84BE84" rx="3" ry="3" style="stroke:#038048;stroke-width:1.0;"/><text fill="#000000" font-family="sans-serif" font-size="14" lengthAdjust="spacing" textLength="343" x="27" y="184.2363">AddSensorDialog(onSuccess:Action&lt;GenericSensor&gt;)</text></g><!--MD5=[fa22f29c53ed6d2510bea2e0aa245b7f]
class Window--><g id="elem_Window"><rect fill="#F1F1F1" height="48" id="Window" rx="2.5" ry="2.5" style="stroke:#181818;stroke-width:0.5;" width="81" x="151" y="7"/><ellipse cx="166" cy="23" fill="#ADD1B2" rx="11" ry="11" style="stroke:#181818;stroke-width:1.0;"/><path d="M168.7656,18.875 Q168.9219,18.6563 169.1094,18.5469 Q169.2969,18.4375 169.5156,18.4375 Q169.8906,18.4375 170.125,18.7031 Q170.3594,18.9531 170.3594,19.5625 L170.3594,21.0156 Q170.3594,21.625 170.125,21.8906 Q169.8906,22.1563 169.5156,22.1563 Q169.1719,22.1563 168.9688,21.9531 Q168.7656,21.7656 168.6563,21.25 Q168.6094,20.8906 168.4219,20.7031 Q168.0938,20.3281 167.4844,20.1094 Q166.875,19.8906 166.25,19.8906 Q165.4844,19.8906 164.8438,20.2188 Q164.2188,20.5469 163.7188,21.2969 Q163.2344,22.0469 163.2344,23.0781 L163.2344,24.1719 Q163.2344,25.4063 164.125,26.2344 Q165.0156,27.0469 166.6094,27.0469 Q167.5469,27.0469 168.2031,26.7969 Q168.5938,26.6406 169.0156,26.2031 Q169.2813,25.9375 169.4219,25.8594 Q169.5781,25.7813 169.7813,25.7813 Q170.1094,25.7813 170.3594,26.0469 Q170.625,26.2969 170.625,26.6406 Q170.625,26.9844 170.2813,27.3906 Q169.7813,27.9688 168.9844,28.2969 Q167.9063,28.75 166.6094,28.75 Q165.0938,28.75 163.8906,28.125 Q162.9063,27.625 162.2188,26.5625 Q161.5313,25.4844 161.5313,24.2031 L161.5313,23.0469 Q161.5313,21.7188 162.1406,20.5781 Q162.7656,19.4219 163.8594,18.8125 Q164.9531,18.1875 166.1875,18.1875 Q166.9219,18.1875 167.5625,18.3594 Q168.2188,18.5156 168.7656,18.875 Z " fill="#000000"/><text fill="#000000" font-family="sans-serif" font-size="14" lengthAdjust="spacing" textLength="49" x="180" y="28.7285">Window</text><line style="stroke:#181818;stroke-width:0.5;" x1="152" x2="231" y1="39" y2="39"/><line style="stroke:#181818;stroke-width:0.5;" x1="152" x2="231" y1="47" y2="47"/></g><!--MD5=[d60c4e2a4a79b06ce1d46f4164bcb18f]
reverse link Window to AddSensorDialog--><g id="link_Window_AddSensorDialog"><path codeLine="4" d="M191.5,75.34 C191.5,88.26 191.5,102.29 191.5,114.77 " fill="none" id="Window-backto-AddSensorDialog" style="stroke:#181818;stroke-width:1.0;"/><polygon fill="none" points="184.5,75.14,191.5,55.14,198.5,75.14,184.5,75.14" style="stroke:#181818;stroke-width:1.0;"/></g><!--MD5=[4ca7d0cf6c49d65a66ce412d176f3847]
@startuml
class AddSensorDialog <<partial>> {
    + AddSensorDialog(onSuccess:Action<GenericSensor>)
}
Window <|- - AddSensorDialog
@enduml

PlantUML version 1.2022.7(Mon Aug 22 19:01:30 CEST 2022)
(GPL source distribution)
Java Runtime: Java(TM) SE Runtime Environment
JVM: Java HotSpot(TM) 64-Bit Server VM
Default Encoding: Cp1252
Language: de
Country: DE
--></g></svg>